<?xml version="1.0" encoding="UTF-8"?>
<svg width="810px" height="317px" viewBox="0 0 810 317" version="1.1" xmlns="http://www.w3.org/2000/svg" xmlns:xlink="http://www.w3.org/1999/xlink">
    <!-- Generator: Sketch 48.2 (47327) - http://www.bohemiancoding.com/sketch -->
    <title>designed to scale copy 3</title>
    <desc>Created with Sketch.</desc>
    <defs></defs>
    <g id="Carousel" stroke="none" stroke-width="1" fill="none" fill-rule="evenodd" transform="translate(-1582.000000, -2353.000000)">
        <g id="designed-to-scale-copy-3" transform="translate(1582.000000, 2353.000000)">
            <path d="M26.613462,147.274082 C26.613462,151.049439 27.2502596,154.574569 28.523874,157.849577 C29.7974884,161.124585 31.582796,163.978803 33.8798505,166.412317 C36.176905,168.84583 38.8946663,170.756223 42.033216,172.143553 C45.1717657,173.530882 48.6286671,174.224537 52.404024,174.224537 C56.1793809,174.224537 59.6476537,173.530882 62.8089465,172.143553 C65.9702393,170.756223 68.699372,168.84583 70.9964265,166.412317 C73.293481,163.978803 75.0787886,161.124585 76.352403,157.849577 C77.6260174,154.574569 78.262815,151.049439 78.262815,147.274082 C78.262815,143.544211 77.6260174,140.030453 76.352403,136.732702 C75.0787886,133.43495 73.293481,130.557989 70.9964265,128.101733 C68.699372,125.645477 65.9702393,123.712341 62.8089465,122.302268 C59.6476537,120.892195 56.1793809,120.187169 52.404024,120.187169 C48.6286671,120.187169 45.1717657,120.892195 42.033216,122.302268 C38.8946663,123.712341 36.176905,125.645477 33.8798505,128.101733 C31.582796,130.557989 29.7974884,133.43495 28.523874,136.732702 C27.2502596,140.030453 26.613462,143.544211 26.613462,147.274082 Z M0.277068,147.342311 C0.277068,142.520771 0.891122859,137.892617 2.119251,133.45771 C3.34737914,129.022802 5.09857263,124.860875 7.372884,120.971803 C9.64719537,117.08273 12.3649567,113.546229 15.5262495,110.362193 C18.6875423,107.178157 22.2013007,104.460396 26.06763,102.208828 C29.9339593,99.9572592 34.0845153,98.2060658 38.5194225,96.9551945 C42.9543297,95.7043232 47.5824839,95.078897 52.404024,95.078897 C57.1800779,95.078897 61.7968607,95.7043232 66.254511,96.9551945 C70.7121613,98.2060658 74.8740887,99.9572592 78.740418,102.208828 C82.6067473,104.460396 86.1318771,107.178157 89.315913,110.362193 C92.4999489,113.546229 95.2177102,117.08273 97.4692785,120.971803 C99.7208468,124.860875 101.47204,129.022802 102.722912,133.45771 C103.973783,137.892617 104.599209,142.520771 104.599209,147.342311 C104.599209,152.163851 103.973783,156.792005 102.722912,161.226913 C101.47204,165.66182 99.7208468,169.801004 97.4692785,173.644591 C95.2177102,177.488177 92.4999489,180.990564 89.315913,184.151857 C86.1318771,187.313149 82.6067473,190.030911 78.740418,192.305222 C74.8740887,194.579533 70.7121613,196.330727 66.254511,197.558855 C61.7968607,198.786983 57.1800779,199.401038 52.404024,199.401038 C47.5824839,199.401038 42.9543297,198.786983 38.5194225,197.558855 C34.0845153,196.330727 29.9339593,194.579533 26.06763,192.305222 C22.2013007,190.030911 18.6875423,187.313149 15.5262495,184.151857 C12.3649567,180.990564 9.64719537,177.488177 7.372884,173.644591 C5.09857263,169.801004 3.34737914,165.66182 2.119251,161.226913 C0.891122859,156.792005 0.277068,152.163851 0.277068,147.342311 Z M120.018963,99.718469 C120.018963,98.7632582 120.269133,98.0013753 120.769482,97.4327975 C121.269831,96.8642197 122.020342,96.579935 123.021039,96.579935 L166.61937,96.579935 C169.75792,96.579935 172.71448,97.0120477 175.48914,97.876286 C178.2638,98.7405243 180.81099,99.9345199 183.130788,101.458309 C185.450586,102.982097 187.542921,104.801519 189.407856,106.916629 C191.272791,109.031738 192.853414,111.317387 194.149772,113.773643 C195.446129,116.229899 196.43544,118.811204 197.117733,121.517635 C197.800026,124.224065 198.141168,126.964569 198.141168,129.739229 C198.141168,133.832989 197.402028,137.835717 195.923726,141.747533 C194.445423,145.659349 192.341717,149.138993 189.612543,152.18657 C186.883369,155.234147 183.60841,157.701738 179.787567,159.589417 C175.966724,161.477095 171.736568,162.443663 167.096973,162.489149 L146.423586,162.489149 L146.423586,194.966153 C146.423586,196.922061 145.377418,197.9 143.285052,197.9 L123.021039,197.9 C122.111314,197.9 121.383546,197.661201 120.837711,197.183596 C120.291876,196.70599 120.018963,195.96685 120.018963,194.966153 L120.018963,99.718469 Z M171.3954,129.602771 C171.3954,128.238184 171.156601,126.873618 170.678996,125.509031 C170.20139,124.144444 169.507736,122.927706 168.598011,121.85878 C167.688286,120.789853 166.585262,119.914256 165.288905,119.231963 C163.992547,118.54967 162.525638,118.208528 160.888134,118.208528 L146.423586,118.208528 L146.423586,140.997014 L160.888134,140.997014 C162.525638,140.997014 164.003918,140.667244 165.323019,140.007694 C166.64212,139.348143 167.745144,138.495289 168.632126,137.449106 C169.519107,136.402923 170.20139,135.197556 170.678996,133.832969 C171.156601,132.468382 171.3954,131.05833 171.3954,129.602771 Z M207.420312,99.582011 C207.420312,98.6722865 207.727339,97.9445177 208.341404,97.398683 C208.955468,96.8528483 209.71735,96.579935 210.627075,96.579935 L284.109708,96.579935 C284.92846,96.579935 285.656229,96.8301055 286.293036,97.330454 C286.929843,97.8308025 287.293728,98.581314 287.3847,99.582011 L287.3847,116.571032 C287.3847,117.389784 287.100415,118.17441 286.531838,118.924933 C285.96326,119.675455 285.155891,120.050711 284.109708,120.050711 L260.570703,120.050711 L260.570703,194.693237 C260.570703,195.511989 260.275047,196.251129 259.683726,196.91068 C259.092405,197.57023 258.319151,197.9 257.36394,197.9 L237.304614,197.9 C236.531348,197.9 235.803579,197.592973 235.121286,196.978909 C234.438993,196.364844 234.097851,195.602962 234.097851,194.693237 L234.097851,120.050711 L210.627075,120.050711 C209.71735,120.050711 208.955468,119.755055 208.341404,119.163734 C207.727339,118.572413 207.420312,117.708188 207.420312,116.571032 L207.420312,99.582011 Z M304.100805,99.582011 C304.100805,98.7632589 304.350975,98.058233 304.851324,97.466912 C305.351673,96.875591 306.102184,96.579935 307.102881,96.579935 L327.162207,96.579935 C327.8445,96.579935 328.572269,96.8528483 329.345535,97.398683 C330.118801,97.9445177 330.505428,98.6722865 330.505428,99.582011 L330.505428,194.897924 C330.505428,196.899318 329.391032,197.9 327.162207,197.9 L307.102881,197.9 C305.101487,197.9 304.100805,196.899318 304.100805,194.897924 L304.100805,99.582011 Z M358.138173,99.582011 C358.229145,98.7632589 358.547544,98.058233 359.093379,97.466912 C359.639214,96.875591 360.412468,96.579935 361.413165,96.579935 L385.020399,96.579935 C386.703389,96.579935 387.795042,97.4441604 388.295391,99.172637 L406.853679,161.124569 L425.548425,99.172637 C426.185232,97.4441604 427.345114,96.579935 429.028104,96.579935 L452.362422,96.579935 C453.181174,96.579935 453.920314,96.8642197 454.579865,97.4327975 C455.239415,98.0013753 455.614671,98.7177727 455.705643,99.582011 C457.297661,115.593163 458.923769,131.47899 460.584017,147.239968 C462.244264,163.000945 463.870372,178.886772 465.46239,194.897924 L465.46239,195.239069 C465.46239,197.013032 464.461708,197.9 462.460314,197.9 L443.151507,197.9 C441.059141,197.9 439.967487,196.899318 439.876515,194.897924 L433.940592,142.156907 L418.589067,195.239069 C418.498095,195.693931 418.168324,196.239758 417.599747,196.876565 C417.031169,197.513372 416.473971,197.831771 415.928136,197.831771 L397.983909,197.831771 C397.438074,197.831771 396.858134,197.524744 396.24407,196.91068 C395.630005,196.296615 395.300235,195.739418 395.254749,195.239069 L379.903224,142.293365 L373.967301,194.897924 C373.876329,196.899318 372.761933,197.9 370.62408,197.9 L351.315273,197.9 C349.359365,197.9 348.381426,196.899318 348.381426,194.897924 L358.138173,99.582011 Z M483.815991,99.582011 C483.815991,98.7632589 484.066161,98.058233 484.56651,97.466912 C485.066859,96.875591 485.81737,96.579935 486.818067,96.579935 L506.877393,96.579935 C507.559686,96.579935 508.287455,96.8528483 509.060721,97.398683 C509.833987,97.9445177 510.220614,98.6722865 510.220614,99.582011 L510.220614,194.897924 C510.220614,196.899318 509.106218,197.9 506.877393,197.9 L486.818067,197.9 C484.816673,197.9 483.815991,196.899318 483.815991,194.897924 L483.815991,99.582011 Z M528.574215,99.582011 C528.574215,98.6722865 528.8585,97.9445177 529.427078,97.398683 C529.995655,96.8528483 530.780281,96.579935 531.780978,96.579935 L610.994847,96.579935 C611.859085,96.579935 612.598225,96.8301055 613.21229,97.330454 C613.826354,97.8308025 614.133381,98.581314 614.133381,99.582011 L614.133381,113.364269 C614.133381,113.728159 614.12201,114.0693 614.099267,114.387704 C614.076523,114.706108 613.951438,115.115477 613.724007,115.615826 L564.326211,174.497453 L611.199534,174.497453 C612.063772,174.497453 612.791541,174.747623 613.382862,175.247972 C613.974183,175.748321 614.269839,176.521575 614.269839,177.567758 L614.269839,194.556779 C614.269839,195.330045 613.985554,196.080556 613.416977,196.808336 C612.848399,197.536116 612.109259,197.9 611.199534,197.9 L531.985665,197.9 C531.07594,197.9 530.314058,197.604344 529.699994,197.013023 C529.085929,196.421702 528.778902,195.602962 528.778902,194.556779 L528.778902,179.887544 C528.778902,179.159764 528.938101,178.568452 529.256505,178.11359 L578.517843,120.050711 L531.780978,120.050711 C530.780281,120.050711 529.995655,119.789169 529.427078,119.266078 C528.8585,118.742986 528.574215,117.890132 528.574215,116.70749 L528.574215,99.582011 Z M629.89428,99.718469 C629.89428,98.7632582 630.155822,98.0013753 630.678914,97.4327975 C631.202005,96.8642197 631.941145,96.579935 632.896356,96.579935 L700.647753,96.579935 C701.64845,96.579935 702.421704,96.875591 702.967539,97.466912 C703.513374,98.058233 703.786287,98.85423 703.786287,99.854927 L703.786287,116.775719 C703.786287,117.548985 703.513374,118.288125 702.967539,118.993162 C702.421704,119.698198 701.625707,120.050711 700.579524,120.050711 L656.367132,120.050711 L656.367132,136.903274 L690.481632,136.903274 C691.34587,136.903274 692.062268,137.107959 692.630846,137.517335 C693.199423,137.926711 693.483708,138.608994 693.483708,139.564205 L693.483708,154.301669 C693.483708,154.938476 693.233538,155.552531 692.733189,156.143852 C692.23284,156.735173 691.505072,157.030829 690.549861,157.030829 L656.367132,157.030829 L656.367132,174.429224 L702.21702,174.429224 C704.2639,174.429224 705.287325,175.475392 705.287325,177.567758 L705.287325,194.761466 C705.287325,195.216328 705.105383,195.625698 704.741493,195.989588 C704.559548,197.263202 703.627094,197.9 701.944104,197.9 L632.896356,197.9 C631.986631,197.9 631.258863,197.661201 630.713028,197.183596 C630.167193,196.70599 629.89428,195.96685 629.89428,194.966153 L629.89428,99.718469 Z M809.745924,147.342311 C809.745924,152.163851 809.131869,156.74652 807.903741,161.090455 C806.675613,165.434389 804.924419,169.482603 802.650108,173.235217 C800.375797,176.98783 797.658035,180.387875 794.496743,183.435452 C791.33545,186.483029 787.833063,189.075705 783.989477,191.213558 C780.14589,193.351411 775.995334,195.000262 771.537684,196.160161 C767.080034,197.320059 762.463251,197.9 757.687197,197.9 L724.0503,197.9 C723.231548,197.9 722.503779,197.718058 721.866972,197.354168 C721.230165,196.990278 720.911766,196.217024 720.911766,195.034382 L720.911766,99.718469 C720.911766,98.7632582 721.173308,97.990004 721.6964,97.398683 C722.219491,96.807362 723.004117,96.511706 724.0503,96.511706 L757.687197,96.511706 C762.463251,96.511706 767.068662,97.1030181 771.50357,98.28566 C775.938477,99.4683019 780.077661,101.151267 783.921248,103.334606 C787.764834,105.517945 791.278592,108.133364 794.462628,111.180941 C797.646664,114.228518 800.364425,117.639934 802.615994,121.415291 C804.867562,125.190648 806.618755,129.261604 807.869627,133.628282 C809.120498,137.99496 809.745924,142.566257 809.745924,147.342311 Z M747.316389,121.005917 L747.316389,173.474018 L753.047625,173.474018 C754.093808,173.474018 755.117233,173.439904 756.11793,173.371675 C757.118627,173.303445 758.119309,173.223845 759.120006,173.132873 C762.531473,172.859956 765.715461,172.029844 768.672066,170.642515 C771.628671,169.255185 774.209975,167.435763 776.416058,165.184195 C778.62214,162.932626 780.35059,160.283093 781.601462,157.235516 C782.852333,154.187939 783.477759,150.867494 783.477759,147.274082 C783.477759,143.453239 782.761362,139.939481 781.328546,136.732702 C779.895729,133.525922 777.951222,130.751304 775.494966,128.408764 C773.03871,126.066223 770.161749,124.246801 766.863998,122.950444 C763.566246,121.654086 760.052488,121.005917 756.322617,121.005917 L747.316389,121.005917 Z" id="OPTIMIZED" fill="#FFFFFF"></path>
            <path d="M107.270362,71.576286 L89.402572,71.576286 C89.901208,67.919622 90.06742,64.179852 90.06742,59.276598 L90.06742,14.316252 C90.06742,9.828528 89.901208,6.088758 89.402572,2.182776 C93.308554,2.348988 96.30037,2.432094 101.619154,2.432094 L119.819368,2.432094 C136.274356,2.432094 145.33291,10.327164 145.33291,24.787608 C145.33291,39.580476 135.858826,48.389712 119.736262,48.389712 L106.605514,48.389712 L106.605514,59.02728 C106.605514,63.930534 106.854832,68.002728 107.270362,71.576286 Z M106.605514,34.261692 L118.988308,34.261692 C124.805728,34.261692 128.213074,31.020558 128.213074,25.286244 C128.213074,19.55193 124.97194,16.560114 118.988308,16.560114 L106.605514,16.560114 L106.605514,34.261692 Z M202.592944,50.882892 L165.195244,50.882892 C166.026304,57.614478 169.932286,61.188036 176.49766,61.188036 C179.8219,61.188036 182.73061,60.107658 184.891366,58.113114 C186.137956,56.94963 186.719698,56.035464 187.384546,53.874708 L201.84499,57.946902 C199.933552,62.268414 198.686962,64.179852 196.359994,66.50682 C191.622952,71.160756 184.974472,73.57083 176.746978,73.57083 C168.60259,73.57083 162.203428,71.243862 157.466386,66.50682 C152.563132,61.52046 149.90374,54.45645 149.90374,46.228956 C149.90374,29.773968 160.458202,18.887082 176.331448,18.887082 C189.295984,18.887082 198.354538,25.951092 201.263248,38.333886 C201.928096,40.993278 202.26052,44.48373 202.509838,49.220772 C202.509838,49.553196 202.509838,50.051832 202.592944,50.882892 Z M165.444562,39.414264 L186.802804,39.414264 C185.63932,34.09548 182.065762,31.269876 176.331448,31.269876 C170.430922,31.269876 166.857364,33.929268 165.444562,39.414264 Z M250.628212,20.881626 L246.639124,35.840706 C242.816248,34.677222 240.738598,34.261692 238.162312,34.261692 C233.923906,34.261692 230.682772,35.7576 228.272698,38.749416 C226.693684,40.74396 226.111942,42.489186 225.779518,46.14585 L225.779518,59.110386 C225.779518,64.42917 225.94573,67.587198 226.444366,71.576286 L209.241424,71.576286 C209.74006,67.420986 209.906272,64.42917 209.906272,59.02728 L209.906272,33.430632 C209.906272,27.363894 209.74006,24.455184 209.241424,20.881626 L225.779518,20.881626 L225.779518,27.447 C229.851712,22.128216 234.838072,19.884354 242.400718,19.884354 C245.06011,19.884354 246.72223,20.050566 250.628212,20.881626 Z M263.426536,33.67995 L261.182674,33.67995 C257.276692,33.67995 254.700406,33.846162 251.874802,34.261692 L251.874802,20.299884 C254.20177,20.632308 258.024646,20.881626 261.182674,20.881626 L263.426536,20.881626 L263.426536,16.975644 C263.426536,6.005652 269.659486,0.936186 283.205764,0.936186 C287.8597,0.936186 291.267046,1.434822 295.837876,2.681412 L293.26159,14.897994 C290.685304,13.485192 288.192124,12.820344 285.034096,12.820344 C280.961902,12.820344 279.382888,14.482464 279.382888,18.803976 L279.382888,20.881626 L281.792962,20.881626 C285.283414,20.881626 289.771138,20.632308 292.84606,20.299884 L292.84606,34.261692 C289.355608,33.846162 286.61311,33.67995 281.959174,33.67995 L279.382888,33.67995 L279.382888,59.02728 C279.382888,64.761594 279.5491,67.504092 280.047736,71.576286 L262.761688,71.576286 C263.260324,67.504092 263.426536,64.42917 263.426536,59.02728 L263.426536,33.67995 Z M326.005354,73.487724 C309.301048,73.487724 298.66348,62.850156 298.66348,46.14585 C298.66348,29.52465 309.301048,18.970188 326.08846,18.970188 C342.875872,18.970188 353.51344,29.52465 353.51344,45.979638 C353.51344,62.517732 342.543448,73.487724 326.005354,73.487724 Z M326.171566,31.436088 C318.858238,31.436088 314.536726,36.921084 314.536726,46.062744 C314.536726,55.28751 318.858238,60.855612 326.08846,60.855612 C333.318682,60.855612 337.473982,55.453722 337.473982,46.228956 C337.473982,36.921084 333.235576,31.436088 326.171566,31.436088 Z M401.631814,20.881626 L397.642726,35.840706 C393.81985,34.677222 391.7422,34.261692 389.165914,34.261692 C384.927508,34.261692 381.686374,35.7576 379.2763,38.749416 C377.697286,40.74396 377.115544,42.489186 376.78312,46.14585 L376.78312,59.110386 C376.78312,64.42917 376.949332,67.587198 377.447968,71.576286 L360.245026,71.576286 C360.743662,67.420986 360.909874,64.42917 360.909874,59.02728 L360.909874,33.430632 C360.909874,27.363894 360.743662,24.455184 360.245026,20.881626 L376.78312,20.881626 L376.78312,27.447 C380.855314,22.128216 385.841674,19.884354 393.40432,19.884354 C396.063712,19.884354 397.725832,20.050566 401.631814,20.881626 Z M423.73801,71.576286 L406.618174,71.576286 C407.11681,67.75341 407.283022,64.262958 407.283022,59.02728 L407.283022,33.430632 C407.283022,27.114576 407.11681,24.12276 406.618174,20.881626 L423.073162,20.881626 L423.073162,24.372078 C423.073162,24.704502 423.073162,24.704502 422.990056,25.535562 L422.990056,26.366622 C427.228462,21.712686 432.297928,19.55193 438.863302,19.55193 C443.184814,19.55193 446.758372,20.549202 449.50087,22.543746 C450.996778,23.624124 451.827838,24.621396 452.908216,26.699046 C458.060788,21.62958 463.130254,19.468824 470.360476,19.468824 C482.244634,19.468824 488.311372,25.951092 488.311372,38.500098 L488.311372,59.110386 C488.311372,64.262958 488.477584,67.670304 488.97622,71.576286 L471.690172,71.576286 C472.188808,67.670304 472.35502,64.678488 472.35502,59.02728 L472.35502,41.907444 C472.35502,35.674494 470.526688,33.26442 465.789646,33.26442 C461.55124,33.26442 457.728364,36.58866 455.650714,42.156762 L455.650714,59.110386 C455.650714,64.096746 455.816926,67.587198 456.315562,71.576286 L439.029514,71.576286 C439.52815,67.836516 439.694362,64.346064 439.694362,59.02728 L439.694362,41.907444 C439.694362,38.416992 439.361938,36.837978 438.28156,35.425176 C437.367394,34.09548 435.705274,33.347526 433.71073,33.347526 C429.223006,33.347526 425.40013,36.58866 423.073162,42.239868 L423.073162,59.02728 C423.073162,64.262958 423.239374,67.504092 423.73801,71.576286 Z M530.94475,38.749416 L530.94475,36.837978 C530.94475,32.84889 528.534676,31.020558 523.04968,31.020558 C517.730896,31.020558 514.905292,32.765784 513.658702,36.837978 L497.785456,34.261692 C499.447576,29.358438 501.275908,26.699046 504.76636,24.205866 C509.254084,21.047838 515.403928,19.468824 523.46521,19.468824 C529.615054,19.468824 535.598686,20.632308 538.83982,22.377534 C544.158604,25.286244 546.485572,29.857074 546.485572,37.336614 L546.485572,59.775234 C546.485572,64.8447 546.651784,67.836516 547.067314,71.576286 L530.94475,71.576286 L530.94475,67.75341 C526.290814,71.326968 521.636878,72.73977 514.822186,72.73977 C508.50613,72.73977 503.769088,71.243862 500.444848,68.16894 C497.453032,65.426442 495.874018,61.437354 495.874018,56.866524 C495.874018,51.630846 497.951668,47.475546 501.940756,44.733048 C506.179162,41.741232 511.747264,39.996006 519.226804,39.331158 C522.467938,38.998734 524.961118,38.915628 530.94475,38.749416 Z M530.94475,51.713952 L530.94475,49.386984 C523.548316,49.553196 519.974758,49.968726 516.567412,51.049104 C513.575596,52.046376 511.747264,54.124026 511.747264,56.5341 C511.747264,59.525916 514.240444,61.271142 518.561956,61.271142 C521.969302,61.271142 525.709072,60.024552 527.952934,58.113114 C529.864372,56.450994 530.94475,54.207132 530.94475,51.713952 Z M573.079492,71.576286 L555.87655,71.576286 C556.375186,67.670304 556.541398,64.179852 556.541398,59.02728 L556.541398,33.430632 C556.541398,27.696318 556.375186,24.205866 555.87655,20.881626 L572.414644,20.881626 L572.414644,24.372078 C572.414644,24.870714 572.331538,26.117304 572.331538,26.699046 C577.567216,21.712686 582.636682,19.635036 589.451374,19.635036 C595.185688,19.635036 599.756518,21.21405 602.83144,24.288972 C606.15568,27.613212 607.568482,31.685406 607.568482,38.25078 L607.568482,59.110386 C607.568482,63.930534 607.8178,68.085834 608.23333,71.576286 L590.947282,71.576286 C591.445918,67.587198 591.61213,64.096746 591.61213,59.02728 L591.61213,41.99055 C591.61213,38.66631 591.279706,37.253508 590.282434,35.840706 C589.202056,34.344798 587.290618,33.513738 584.797438,33.513738 C580.143502,33.513738 575.988202,36.422448 572.414644,42.239868 L572.414644,59.02728 C572.414644,63.764322 572.580856,67.254774 573.079492,71.576286 Z M665.825788,36.256236 L650.866708,39.331158 C650.118754,36.837978 649.620118,35.674494 648.53974,34.427904 C646.87762,32.516466 644.550652,31.519194 641.558836,31.519194 C634.82725,31.519194 630.838162,36.837978 630.838162,45.979638 C630.838162,54.955086 635.076568,60.772506 641.725048,60.772506 C644.966182,60.772506 647.957998,59.44281 649.620118,57.115842 C650.368072,56.035464 650.783602,55.204404 651.116026,53.292966 L666.40753,55.70304 C665.493364,59.276598 664.496092,61.52046 662.917078,63.930534 C658.761778,70.080378 651.199132,73.487724 641.558836,73.487724 C633.58066,73.487724 626.765968,70.994544 622.195138,66.340608 C617.37499,61.603566 614.715598,54.290238 614.715598,46.14585 C614.715598,29.52465 625.186954,18.887082 641.392624,18.887082 C654.190948,18.887082 663.08329,25.203138 665.825788,36.256236 Z M723.418246,50.882892 L686.020546,50.882892 C686.851606,57.614478 690.757588,61.188036 697.322962,61.188036 C700.647202,61.188036 703.555912,60.107658 705.716668,58.113114 C706.963258,56.94963 707.545,56.035464 708.209848,53.874708 L722.670292,57.946902 C720.758854,62.268414 719.512264,64.179852 717.185296,66.50682 C712.448254,71.160756 705.799774,73.57083 697.57228,73.57083 C689.427892,73.57083 683.02873,71.243862 678.291688,66.50682 C673.388434,61.52046 670.729042,54.45645 670.729042,46.228956 C670.729042,29.773968 681.283504,18.887082 697.15675,18.887082 C710.121286,18.887082 719.17984,25.951092 722.08855,38.333886 C722.753398,40.993278 723.085822,44.48373 723.33514,49.220772 C723.33514,49.553196 723.33514,50.051832 723.418246,50.882892 Z M686.269864,39.414264 L707.628106,39.414264 C706.464622,34.09548 702.891064,31.269876 697.15675,31.269876 C691.256224,31.269876 687.682666,33.929268 686.269864,39.414264 Z" id="Performance" fill="#FF5722"></path>
            <path d="M36.0297852,306 L36.0297852,270.453125 L46.503418,270.453125 C50.1655457,270.453125 53.0260314,271.266919 55.0849609,272.894531 C57.1438905,274.522144 58.1733398,276.94725 58.1733398,280.169922 C58.1733398,281.862639 57.7989946,283.364089 57.050293,284.674316 C56.3015913,285.984544 55.1785557,286.965166 53.6811523,287.616211 C55.5529065,288.055666 56.9363562,289.007805 57.831543,290.472656 C58.7267297,291.937507 59.1743164,293.654613 59.1743164,295.624023 C59.1743164,299.025733 58.2018326,301.60546 56.2568359,303.363281 C54.3118392,305.121103 51.524595,306 47.8950195,306 L36.0297852,306 Z M42.987793,290.326172 L42.987793,300.458008 L47.8950195,300.458008 C49.3598706,300.458008 50.4544235,300.051111 51.1787109,299.237305 C51.9029984,298.423499 52.2651367,297.210946 52.2651367,295.599609 C52.2651367,293.906893 51.955895,292.604822 51.3374023,291.693359 C50.7189097,290.781896 49.7260811,290.326172 48.3588867,290.326172 L42.987793,290.326172 Z M42.987793,285.467773 L46.8208008,285.467773 C48.2368235,285.435221 49.3232384,285.024255 50.0800781,284.234863 C50.8369178,283.445471 51.215332,282.310229 51.215332,280.829102 C51.215332,279.168937 50.8247109,277.952315 50.043457,277.179199 C49.2622031,276.406083 48.0822019,276.019531 46.503418,276.019531 L42.987793,276.019531 L42.987793,285.467773 Z M76.7280273,302.948242 C76.0118779,304.103847 75.1451874,304.986813 74.1279297,305.597168 C73.110672,306.207523 71.9591536,306.512695 70.6733398,306.512695 C68.313302,306.512695 66.4700587,305.621591 65.1435547,303.839355 C63.8170507,302.05712 63.1538086,299.29429 63.1538086,295.550781 L63.1538086,279.583984 L70.0874023,279.583984 L70.0874023,295.599609 C70.0874023,297.471364 70.3152646,298.830399 70.7709961,299.676758 C71.2267275,300.523116 71.9021765,300.946289 72.7973633,300.946289 C73.5623411,300.946289 74.2337211,300.803875 74.8115234,300.519043 C75.3893258,300.234211 75.8816711,299.815107 76.2885742,299.261719 L76.2885742,279.583984 L83.246582,279.583984 L83.246582,306 L77.1430664,306 L76.7280273,302.948242 Z M94.8676758,306 L87.934082,306 L87.934082,279.583984 L94.8676758,279.583984 L94.8676758,306 Z M94.8676758,273.211914 L87.934082,273.211914 L87.934082,267.914062 L94.8676758,267.914062 L94.8676758,273.211914 Z M106.952637,306 L100.019043,306 L100.019043,267.914062 L106.952637,267.914062 L106.952637,306 Z M110.858887,292.938477 C110.858887,288.788065 111.623853,285.443372 113.153809,282.904297 C114.683764,280.365222 116.840318,279.095703 119.623535,279.095703 C120.648931,279.095703 121.576656,279.339841 122.406738,279.828125 C123.236821,280.316409 123.977373,281.016271 124.628418,281.927734 L124.628418,267.914062 L131.562012,267.914062 L131.562012,306 L125.531738,306 L125.067871,303.119141 C124.384274,304.225917 123.590825,305.068194 122.6875,305.645996 C121.784175,306.223798 120.754726,306.512695 119.599121,306.512695 C116.815904,306.512695 114.663419,305.320487 113.141602,302.936035 C111.619784,300.551583 110.858887,297.389994 110.858887,293.451172 L110.858887,292.938477 Z M117.79248,293.451172 C117.79248,295.81121 118.065101,297.650384 118.610352,298.96875 C119.155602,300.287116 120.079258,300.946289 121.381348,300.946289 C122.097497,300.946289 122.724118,300.779461 123.26123,300.445801 C123.798343,300.11214 124.254067,299.627933 124.628418,298.993164 L124.628418,286.981445 C124.254067,286.24902 123.798343,285.679364 123.26123,285.272461 C122.724118,284.865558 122.113773,284.662109 121.430176,284.662109 C120.144362,284.662109 119.216637,285.418938 118.646973,286.932617 C118.077308,288.446297 117.79248,290.44823 117.79248,292.938477 L117.79248,293.451172 Z M146.234863,296.527344 C146.234863,294.606761 146.702795,292.950691 147.638672,291.559082 C148.574549,290.167474 150.002757,288.714851 151.92334,287.201172 C150.91422,285.671216 150.16553,284.283698 149.677246,283.038574 C149.188962,281.793451 148.944824,280.519863 148.944824,279.217773 C148.944824,276.434556 149.746411,274.192554 151.349609,272.491699 C152.952807,270.790844 155.089017,269.94043 157.758301,269.94043 C160.06951,269.94043 161.961581,270.742017 163.43457,272.345215 C164.907559,273.948413 165.644043,275.889312 165.644043,278.167969 C165.644043,279.746753 165.290043,281.191237 164.582031,282.501465 C163.87402,283.811693 162.917812,284.946935 161.713379,285.907227 L159.73584,287.494141 L165.351074,294.916016 L165.497559,294.891602 C165.937014,294.045243 166.282876,293.089035 166.535156,292.022949 C166.787436,290.956863 166.913574,289.829759 166.913574,288.641602 L171.991699,288.641602 C171.991699,290.887707 171.75163,292.942536 171.271484,294.806152 C170.791339,296.669768 170.038579,298.325839 169.013184,299.774414 L173.749512,306 L165.888184,306 L164.325684,303.949219 C163.104974,304.811853 161.863939,305.45475 160.602539,305.87793 C159.34114,306.301109 157.986173,306.512695 156.537598,306.512695 C153.396306,306.512695 150.89389,305.593108 149.030273,303.753906 C147.166657,301.914704 146.234863,299.505874 146.234863,296.527344 Z M156.952637,300.970703 C157.668786,300.970703 158.384925,300.873048 159.101074,300.677734 C159.817224,300.482421 160.508948,300.181317 161.17627,299.774414 L154.853027,291.375977 L154.682129,291.522461 C154.112465,292.303715 153.725912,293.064612 153.522461,293.805176 C153.319009,294.545739 153.217285,295.306637 153.217285,296.087891 C153.217285,297.503913 153.571286,298.671708 154.279297,299.591309 C154.987308,300.51091 155.878413,300.970703 156.952637,300.970703 Z M155.121582,279.144531 C155.121582,279.811852 155.263996,280.495439 155.548828,281.195312 C155.83366,281.895186 156.260902,282.660152 156.830566,283.490234 L158.270996,282.416016 C159.084802,281.830075 159.630044,281.231937 159.906738,280.621582 C160.183432,280.011227 160.321777,279.339847 160.321777,278.607422 C160.321777,277.793616 160.081708,277.073408 159.601562,276.446777 C159.121417,275.820147 158.498865,275.506836 157.733887,275.506836 C156.887528,275.506836 156.240562,275.852698 155.792969,276.544434 C155.345375,277.236169 155.121582,278.102859 155.121582,279.144531 Z M195.209473,291.864258 L195.209473,306 L188.275879,306 L188.275879,270.477539 L199.872559,270.477539 C203.371925,270.477539 206.11848,271.401195 208.112305,273.248535 C210.10613,275.095875 211.103027,277.663395 211.103027,280.951172 C211.103027,282.80665 210.687992,284.405755 209.85791,285.748535 C209.027828,287.091315 207.815275,288.161454 206.220215,288.958984 C208.043141,289.577477 209.357418,290.602857 210.163086,292.035156 C210.968754,293.467455 211.371582,295.257802 211.371582,297.40625 L211.371582,299.920898 C211.371582,300.897466 211.485513,301.943191 211.713379,303.058105 C211.941245,304.17302 212.340004,304.982745 212.909668,305.487305 L212.909668,306 L205.731934,306 C205.162269,305.479164 204.8042,304.632818 204.657715,303.460938 C204.51123,302.289057 204.437988,301.09278 204.437988,299.87207 L204.437988,297.455078 C204.437988,295.680981 204.07585,294.305669 203.351562,293.329102 C202.627275,292.352534 201.589688,291.864258 200.23877,291.864258 L195.209473,291.864258 Z M195.209473,286.322266 L199.848145,286.322266 C201.264167,286.322266 202.338375,285.890955 203.070801,285.02832 C203.803226,284.165686 204.169434,282.936857 204.169434,281.341797 C204.169434,279.714185 203.803226,278.420252 203.070801,277.459961 C202.338375,276.49967 201.272305,276.019531 199.872559,276.019531 L195.209473,276.019531 L195.209473,286.322266 Z M226.459473,306.512695 C223.139144,306.512695 220.502451,305.422211 218.549316,303.241211 C216.596182,301.06021 215.619629,298.309587 215.619629,294.989258 L215.619629,291.27832 C215.619629,287.713849 216.527009,284.792329 218.341797,282.513672 C220.156585,280.235015 222.667139,279.095703 225.873535,279.095703 C228.965999,279.095703 231.358553,280.129221 233.05127,282.196289 C234.743986,284.263357 235.590332,287.079084 235.590332,290.643555 L235.590332,294.891602 L222.528809,294.891602 L222.528809,294.989258 C222.528809,296.730803 222.923499,298.16308 223.712891,299.286133 C224.502283,300.409185 225.694491,300.970703 227.289551,300.970703 C228.591641,300.970703 229.649573,300.82422 230.463379,300.53125 C231.277185,300.23828 232.2456,299.750003 233.368652,299.066406 L235.126465,303.485352 C234.215002,304.364262 232.99838,305.088539 231.476562,305.658203 C229.954745,306.227867 228.282398,306.512695 226.459473,306.512695 Z M225.873535,284.662109 C224.766759,284.662109 223.952965,285.166662 223.432129,286.175781 C222.911293,287.184901 222.618327,288.543937 222.553223,290.25293 L228.778809,290.25293 L228.778809,289.276367 C228.778809,287.811516 228.550946,286.676274 228.095215,285.870605 C227.639483,285.064937 226.898931,284.662109 225.873535,284.662109 Z M245.429199,279.583984 L245.722168,283.22168 C246.454594,281.91959 247.353836,280.906416 248.419922,280.182129 C249.486008,279.457841 250.66194,279.095703 251.947754,279.095703 C254.145031,279.095703 255.874343,279.942049 257.135742,281.634766 C258.397142,283.327482 259.027832,285.988589 259.027832,289.618164 L259.027832,306 L252.069824,306 L252.069824,289.618164 C252.069824,287.795238 251.813479,286.513513 251.300781,285.772949 C250.788083,285.032386 249.994634,284.662109 248.92041,284.662109 C248.301917,284.662109 247.732262,284.824868 247.211426,285.150391 C246.69059,285.475913 246.251141,285.9235 245.893066,286.493164 L245.893066,306 L238.959473,306 L238.959473,279.583984 L245.429199,279.583984 Z M262.445801,292.938477 C262.445801,288.788065 263.210767,285.443372 264.740723,282.904297 C266.270678,280.365222 268.427232,279.095703 271.210449,279.095703 C272.235845,279.095703 273.16357,279.339841 273.993652,279.828125 C274.823735,280.316409 275.564287,281.016271 276.215332,281.927734 L276.215332,267.914062 L283.148926,267.914062 L283.148926,306 L277.118652,306 L276.654785,303.119141 C275.971188,304.225917 275.177739,305.068194 274.274414,305.645996 C273.371089,306.223798 272.34164,306.512695 271.186035,306.512695 C268.402818,306.512695 266.250333,305.320487 264.728516,302.936035 C263.206698,300.551583 262.445801,297.389994 262.445801,293.451172 L262.445801,292.938477 Z M269.379395,293.451172 C269.379395,295.81121 269.652016,297.650384 270.197266,298.96875 C270.742516,300.287116 271.666172,300.946289 272.968262,300.946289 C273.684411,300.946289 274.311032,300.779461 274.848145,300.445801 C275.385257,300.11214 275.840981,299.627933 276.215332,298.993164 L276.215332,286.981445 C275.840981,286.24902 275.385257,285.679364 274.848145,285.272461 C274.311032,284.865558 273.700687,284.662109 273.01709,284.662109 C271.731276,284.662109 270.803551,285.418938 270.233887,286.932617 C269.664222,288.446297 269.379395,290.44823 269.379395,292.938477 L269.379395,293.451172 Z M297.943848,306.512695 C294.623519,306.512695 291.986826,305.422211 290.033691,303.241211 C288.080557,301.06021 287.104004,298.309587 287.104004,294.989258 L287.104004,291.27832 C287.104004,287.713849 288.011384,284.792329 289.826172,282.513672 C291.64096,280.235015 294.151514,279.095703 297.35791,279.095703 C300.450374,279.095703 302.842928,280.129221 304.535645,282.196289 C306.228361,284.263357 307.074707,287.079084 307.074707,290.643555 L307.074707,294.891602 L294.013184,294.891602 L294.013184,294.989258 C294.013184,296.730803 294.407874,298.16308 295.197266,299.286133 C295.986658,300.409185 297.178866,300.970703 298.773926,300.970703 C300.076016,300.970703 301.133948,300.82422 301.947754,300.53125 C302.76156,300.23828 303.729975,299.750003 304.853027,299.066406 L306.61084,303.485352 C305.699377,304.364262 304.482755,305.088539 302.960938,305.658203 C301.43912,306.227867 299.766773,306.512695 297.943848,306.512695 Z M297.35791,284.662109 C296.251134,284.662109 295.43734,285.166662 294.916504,286.175781 C294.395668,287.184901 294.102702,288.543937 294.037598,290.25293 L300.263184,290.25293 L300.263184,289.276367 C300.263184,287.811516 300.035321,286.676274 299.57959,285.870605 C299.123858,285.064937 298.383306,284.662109 297.35791,284.662109 Z M323.041504,285.907227 L320.429199,285.833984 C319.696774,285.833984 319.090497,286.013019 318.610352,286.371094 C318.130206,286.729168 317.75993,287.233721 317.499512,287.884766 L317.499512,306 L310.565918,306 L310.565918,279.583984 L317.035645,279.583984 L317.304199,283.124023 L317.42627,283.172852 C317.849449,281.903314 318.439449,280.906416 319.196289,280.182129 C319.953129,279.457841 320.836095,279.095703 321.845215,279.095703 C322.154461,279.095703 322.484048,279.124186 322.833984,279.181152 C323.183921,279.238119 323.489094,279.307291 323.749512,279.388672 L323.041504,285.907227 Z M361.908691,293.231445 C361.908691,297.398133 360.777518,300.653309 358.515137,302.99707 C356.252756,305.340832 353.241718,306.512695 349.481934,306.512695 C345.722149,306.512695 342.71925,305.340832 340.473145,302.99707 C338.22704,300.653309 337.104004,297.398133 337.104004,293.231445 L337.104004,283.270508 C337.104004,279.120096 338.22704,275.860852 340.473145,273.492676 C342.71925,271.1245 345.714011,269.94043 349.45752,269.94043 C353.201028,269.94043 356.212065,271.1245 358.490723,273.492676 C360.76938,275.860852 361.908691,279.120096 361.908691,283.270508 L361.908691,293.231445 Z M354.999512,283.22168 C354.999512,280.682604 354.527511,278.76612 353.583496,277.472168 C352.639481,276.178216 351.264169,275.53125 349.45752,275.53125 C347.634594,275.53125 346.26742,276.174147 345.355957,277.459961 C344.444494,278.745775 343.98877,280.666328 343.98877,283.22168 L343.98877,293.231445 C343.98877,295.803073 344.452632,297.731764 345.380371,299.017578 C346.30811,300.303392 347.675284,300.946289 349.481934,300.946289 C351.272307,300.946289 352.639481,300.303392 353.583496,299.017578 C354.527511,297.731764 354.999512,295.803073 354.999512,293.231445 L354.999512,283.22168 Z M372.333496,279.583984 L372.626465,283.22168 C373.35889,281.91959 374.258133,280.906416 375.324219,280.182129 C376.390305,279.457841 377.566237,279.095703 378.852051,279.095703 C381.049327,279.095703 382.77864,279.942049 384.040039,281.634766 C385.301439,283.327482 385.932129,285.988589 385.932129,289.618164 L385.932129,306 L378.974121,306 L378.974121,289.618164 C378.974121,287.795238 378.717776,286.513513 378.205078,285.772949 C377.69238,285.032386 376.898931,284.662109 375.824707,284.662109 C375.206214,284.662109 374.636559,284.824868 374.115723,285.150391 C373.594887,285.475913 373.155438,285.9235 372.797363,286.493164 L372.797363,306 L365.86377,306 L365.86377,279.583984 L372.333496,279.583984 Z M399.921387,300.970703 C400.865402,300.970703 401.577472,300.620772 402.057617,299.920898 C402.537763,299.221025 402.777832,298.211921 402.777832,296.893555 L409.07666,296.893555 L409.149902,297.040039 C409.198731,299.80698 408.348316,302.077465 406.598633,303.851562 C404.84895,305.62566 402.623223,306.512695 399.921387,306.512695 C396.503401,306.512695 393.878915,305.397798 392.047852,303.167969 C390.216788,300.93814 389.30127,298.057309 389.30127,294.525391 L389.30127,291.131836 C389.30127,287.616193 390.212719,284.731294 392.035645,282.477051 C393.85857,280.222808 396.470849,279.095703 399.872559,279.095703 C402.737156,279.095703 405.01171,280.01529 406.696289,281.854492 C408.380868,283.693694 409.198731,286.175766 409.149902,289.300781 L409.101074,289.422852 L402.777832,289.422852 C402.777832,287.990553 402.537763,286.839034 402.057617,285.968262 C401.577472,285.097489 400.849126,284.662109 399.872559,284.662109 C398.489088,284.662109 397.536949,285.248041 397.016113,286.419922 C396.495277,287.591803 396.234863,289.162425 396.234863,291.131836 L396.234863,294.525391 C396.234863,296.54363 396.495277,298.12239 397.016113,299.261719 C397.536949,300.401047 398.505364,300.970703 399.921387,300.970703 Z M422.772949,306.512695 C419.45262,306.512695 416.815928,305.422211 414.862793,303.241211 C412.909658,301.06021 411.933105,298.309587 411.933105,294.989258 L411.933105,291.27832 C411.933105,287.713849 412.840486,284.792329 414.655273,282.513672 C416.470061,280.235015 418.980615,279.095703 422.187012,279.095703 C425.279475,279.095703 427.672029,280.129221 429.364746,282.196289 C431.057463,284.263357 431.903809,287.079084 431.903809,290.643555 L431.903809,294.891602 L418.842285,294.891602 L418.842285,294.989258 C418.842285,296.730803 419.236975,298.16308 420.026367,299.286133 C420.815759,300.409185 422.007967,300.970703 423.603027,300.970703 C424.905117,300.970703 425.963049,300.82422 426.776855,300.53125 C427.590662,300.23828 428.559076,299.750003 429.682129,299.066406 L431.439941,303.485352 C430.528479,304.364262 429.311857,305.088539 427.790039,305.658203 C426.268222,306.227867 424.595875,306.512695 422.772949,306.512695 Z M422.187012,284.662109 C421.080235,284.662109 420.266441,285.166662 419.745605,286.175781 C419.22477,287.184901 418.931804,288.543937 418.866699,290.25293 L425.092285,290.25293 L425.092285,289.276367 C425.092285,287.811516 424.864423,286.676274 424.408691,285.870605 C423.95296,285.064937 423.212407,284.662109 422.187012,284.662109 Z M447.919434,306 L447.919434,284.613281 L444.672363,284.613281 L444.672363,279.583984 L447.919434,279.583984 L447.919434,276.654297 C447.919434,273.692042 448.6844,271.40935 450.214355,269.806152 C451.744311,268.202954 453.892727,267.401367 456.659668,267.401367 C457.19678,267.401367 457.733884,267.446126 458.270996,267.535645 C458.808108,267.625163 459.426592,267.751301 460.126465,267.914062 L459.540527,273.236328 C459.215005,273.171224 458.901694,273.114258 458.600586,273.06543 C458.299478,273.016601 457.945477,272.992188 457.538574,272.992188 C456.659664,272.992188 455.992353,273.309567 455.536621,273.944336 C455.08089,274.579105 454.853027,275.482416 454.853027,276.654297 L454.853027,279.583984 L459.101074,279.583984 L459.101074,284.613281 L454.853027,284.613281 L454.853027,306 L447.919434,306 Z M461.322754,291.180664 C461.322754,287.632469 462.262686,284.731294 464.142578,282.477051 C466.02247,280.222808 468.655094,279.095703 472.040527,279.095703 C475.425961,279.095703 478.062653,280.222808 479.950684,282.477051 C481.838714,284.731294 482.782715,287.632469 482.782715,291.180664 L482.782715,294.452148 C482.782715,298.032896 481.838714,300.93814 479.950684,303.167969 C478.062653,305.397798 475.434099,306.512695 472.064941,306.512695 C468.663232,306.512695 466.02247,305.397798 464.142578,303.167969 C462.262686,300.93814 461.322754,298.032896 461.322754,294.452148 L461.322754,291.180664 Z M468.231934,294.452148 C468.231934,296.486664 468.516761,298.0817 469.086426,299.237305 C469.65609,300.392909 470.648919,300.970703 472.064941,300.970703 C473.432136,300.970703 474.40462,300.38884 474.982422,299.225098 C475.560224,298.061355 475.849121,296.470388 475.849121,294.452148 L475.849121,291.180664 C475.849121,289.194977 475.560224,287.612148 474.982422,286.432129 C474.40462,285.25211 473.423998,284.662109 472.040527,284.662109 C470.657057,284.662109 469.676435,285.256179 469.098633,286.444336 C468.52083,287.632493 468.231934,289.211253 468.231934,291.180664 L468.231934,294.452148 Z M498.92041,285.907227 L496.308105,285.833984 C495.57568,285.833984 494.969403,286.013019 494.489258,286.371094 C494.009112,286.729168 493.638836,287.233721 493.378418,287.884766 L493.378418,306 L486.444824,306 L486.444824,279.583984 L492.914551,279.583984 L493.183105,283.124023 L493.305176,283.172852 C493.728355,281.903314 494.318356,280.906416 495.075195,280.182129 C495.832035,279.457841 496.715001,279.095703 497.724121,279.095703 C498.033367,279.095703 498.362954,279.124186 498.712891,279.181152 C499.062827,279.238119 499.368,279.307291 499.628418,279.388672 L498.92041,285.907227 Z M526.26416,306 C526.068847,305.560545 525.893881,305.080406 525.739258,304.55957 C525.584635,304.038734 525.466635,303.509768 525.385254,302.972656 C524.734209,304.04688 523.94076,304.905433 523.004883,305.54834 C522.069006,306.191247 520.982591,306.512695 519.745605,306.512695 C517.564605,306.512695 515.819017,305.796557 514.508789,304.364258 C513.198561,302.931959 512.543457,301.019543 512.543457,298.626953 C512.543457,296.03905 513.377596,294.028979 515.045898,292.59668 C516.714201,291.164381 519.192204,290.448242 522.47998,290.448242 L525.092285,290.448242 L525.092285,288.299805 C525.092285,287.013991 524.860354,286.025231 524.396484,285.333496 C523.932615,284.641761 523.236821,284.295898 522.309082,284.295898 C521.527828,284.295898 520.941896,284.572588 520.55127,285.125977 C520.160643,285.679365 519.965332,286.485021 519.965332,287.542969 L513.251465,287.518555 L513.178223,287.37207 C513.096842,285.077137 513.947257,283.124031 515.729492,281.512695 C517.511728,279.901359 519.859523,279.095703 522.772949,279.095703 C525.523614,279.095703 527.757478,279.89729 529.474609,281.500488 C531.19174,283.103686 532.050293,285.386378 532.050293,288.348633 L532.050293,299.041992 C532.050293,300.344082 532.13981,301.556635 532.318848,302.679688 C532.497885,303.80274 532.774575,304.9095 533.148926,306 L526.26416,306 Z M521.747559,301.288086 C522.447432,301.288086 523.094398,301.100913 523.688477,300.726562 C524.282555,300.352212 524.750487,299.872073 525.092285,299.286133 L525.092285,294.427734 L522.47998,294.427734 C521.422032,294.427734 520.657066,294.793942 520.185059,295.526367 C519.713051,296.258793 519.477051,297.186518 519.477051,298.30957 C519.477051,299.188481 519.680499,299.90462 520.087402,300.458008 C520.494305,301.011396 521.047685,301.288086 521.747559,301.288086 Z M543.695801,306 L536.762207,306 L536.762207,267.914062 L543.695801,267.914062 L543.695801,306 Z M555.780762,306 L548.847168,306 L548.847168,267.914062 L555.780762,267.914062 L555.780762,306 Z M580.072754,295.160156 L580.121582,295.428711 L583.979004,279.583984 L591.400879,279.583984 L582.489746,309.979492 C581.822425,311.883799 580.931321,313.474766 579.816406,314.752441 C578.701492,316.030117 576.996594,316.668945 574.70166,316.668945 C574.131996,316.668945 573.627444,316.620118 573.187988,316.522461 C572.748533,316.424804 572.162601,316.278321 571.430176,316.083008 L572.23584,310.907227 C572.512534,310.956055 572.711913,310.992676 572.833984,311.01709 C572.956055,311.041504 573.090331,311.053711 573.236816,311.053711 C574.245936,311.053711 575.006833,310.789228 575.519531,310.260254 C576.032229,309.73128 576.402505,309.035486 576.630371,308.172852 L577.240723,306.219727 L569.452637,279.583984 L576.898926,279.583984 L580.072754,295.160156 Z M592.572754,291.180664 C592.572754,287.632469 593.512686,284.731294 595.392578,282.477051 C597.27247,280.222808 599.905094,279.095703 603.290527,279.095703 C606.675961,279.095703 609.312653,280.222808 611.200684,282.477051 C613.088714,284.731294 614.032715,287.632469 614.032715,291.180664 L614.032715,294.452148 C614.032715,298.032896 613.088714,300.93814 611.200684,303.167969 C609.312653,305.397798 606.684099,306.512695 603.314941,306.512695 C599.913232,306.512695 597.27247,305.397798 595.392578,303.167969 C593.512686,300.93814 592.572754,298.032896 592.572754,294.452148 L592.572754,291.180664 Z M599.481934,294.452148 C599.481934,296.486664 599.766761,298.0817 600.336426,299.237305 C600.90609,300.392909 601.898919,300.970703 603.314941,300.970703 C604.682136,300.970703 605.65462,300.38884 606.232422,299.225098 C606.810224,298.061355 607.099121,296.470388 607.099121,294.452148 L607.099121,291.180664 C607.099121,289.194977 606.810224,287.612148 606.232422,286.432129 C605.65462,285.25211 604.673998,284.662109 603.290527,284.662109 C601.907057,284.662109 600.926435,285.256179 600.348633,286.444336 C599.77083,287.632493 599.481934,289.211253 599.481934,291.180664 L599.481934,294.452148 Z M631.098145,302.948242 C630.381995,304.103847 629.515305,304.986813 628.498047,305.597168 C627.480789,306.207523 626.329271,306.512695 625.043457,306.512695 C622.683419,306.512695 620.840176,305.621591 619.513672,303.839355 C618.187168,302.05712 617.523926,299.29429 617.523926,295.550781 L617.523926,279.583984 L624.45752,279.583984 L624.45752,295.599609 C624.45752,297.471364 624.685382,298.830399 625.141113,299.676758 C625.596845,300.523116 626.272294,300.946289 627.16748,300.946289 C627.932458,300.946289 628.603838,300.803875 629.181641,300.519043 C629.759443,300.234211 630.251788,299.815107 630.658691,299.261719 L630.658691,279.583984 L637.616699,279.583984 L637.616699,306 L631.513184,306 L631.098145,302.948242 Z M654.462402,285.907227 L651.850098,285.833984 C651.117672,285.833984 650.511396,286.013019 650.03125,286.371094 C649.551104,286.729168 649.180828,287.233721 648.92041,287.884766 L648.92041,306 L641.986816,306 L641.986816,279.583984 L648.456543,279.583984 L648.725098,283.124023 L648.847168,283.172852 C649.270347,281.903314 649.860348,280.906416 650.617188,280.182129 C651.374027,279.457841 652.256994,279.095703 653.266113,279.095703 C653.57536,279.095703 653.904946,279.124186 654.254883,279.181152 C654.604819,279.238119 654.909992,279.307291 655.17041,279.388672 L654.462402,285.907227 Z M693.109863,270.453125 L693.109863,294.647461 C693.109863,298.439798 691.999035,301.365387 689.777344,303.424316 C687.555653,305.483246 684.64634,306.512695 681.049316,306.512695 C677.452293,306.512695 674.54298,305.479177 672.321289,303.412109 C670.099598,301.345042 668.98877,298.423521 668.98877,294.647461 L668.98877,270.453125 L675.922363,270.453125 L675.922363,294.647461 C675.922363,296.812185 676.36995,298.407221 677.265137,299.432617 C678.160323,300.458013 679.421704,300.970703 681.049316,300.970703 C682.725757,300.970703 684.003414,300.482427 684.882324,299.505859 C685.761235,298.529292 686.200684,296.909842 686.200684,294.647461 L686.200684,270.453125 L693.109863,270.453125 Z M709.149902,299.09082 C709.149902,298.342119 708.856937,297.695152 708.270996,297.149902 C707.685056,296.604652 706.56202,295.933272 704.901855,295.135742 C702.248847,294.142899 700.259121,293.019863 698.932617,291.766602 C697.606113,290.51334 696.942871,288.885752 696.942871,286.883789 C696.942871,284.735341 697.793286,282.900235 699.494141,281.378418 C701.194995,279.8566 703.445136,279.095703 706.244629,279.095703 C709.174331,279.095703 711.50992,279.876945 713.251465,281.439453 C714.99301,283.001961 715.831218,284.995756 715.766113,287.420898 L715.692871,287.567383 L709.003418,287.567383 C709.003418,286.460606 708.775556,285.581709 708.319824,284.930664 C707.864093,284.279619 707.16423,283.954102 706.220215,283.954102 C705.471513,283.954102 704.836754,284.206378 704.315918,284.710938 C703.795082,285.215497 703.534668,285.825843 703.534668,286.541992 C703.534668,287.323246 703.795082,287.953936 704.315918,288.434082 C704.836754,288.914228 705.967927,289.569332 707.709473,290.399414 C710.476414,291.343429 712.527174,292.462396 713.861816,293.756348 C715.196458,295.050299 715.86377,296.74706 715.86377,298.84668 C715.86377,301.092785 714.968596,302.931959 713.178223,304.364258 C711.387849,305.796557 709.035985,306.512695 706.122559,306.512695 C703.078924,306.512695 700.670094,305.62566 698.895996,303.851562 C697.121899,302.077465 696.275553,300.075532 696.356934,297.845703 L696.405762,297.699219 L702.753418,297.699219 C702.78597,299.098965 703.111488,300.10807 703.72998,300.726562 C704.348473,301.345055 705.202957,301.654297 706.293457,301.654297 C707.221196,301.654297 707.929197,301.426435 708.41748,300.970703 C708.905764,300.514972 709.149902,299.88835 709.149902,299.09082 Z M729.608887,306.512695 C726.288558,306.512695 723.651865,305.422211 721.69873,303.241211 C719.745596,301.06021 718.769043,298.309587 718.769043,294.989258 L718.769043,291.27832 C718.769043,287.713849 719.676423,284.792329 721.491211,282.513672 C723.305999,280.235015 725.816553,279.095703 729.022949,279.095703 C732.115413,279.095703 734.507967,280.129221 736.200684,282.196289 C737.8934,284.263357 738.739746,287.079084 738.739746,290.643555 L738.739746,294.891602 L725.678223,294.891602 L725.678223,294.989258 C725.678223,296.730803 726.072913,298.16308 726.862305,299.286133 C727.651697,300.409185 728.843905,300.970703 730.438965,300.970703 C731.741055,300.970703 732.798987,300.82422 733.612793,300.53125 C734.426599,300.23828 735.395014,299.750003 736.518066,299.066406 L738.275879,303.485352 C737.364416,304.364262 736.147794,305.088539 734.625977,305.658203 C733.104159,306.227867 731.431813,306.512695 729.608887,306.512695 Z M729.022949,284.662109 C727.916173,284.662109 727.102379,285.166662 726.581543,286.175781 C726.060707,287.184901 725.767741,288.543937 725.702637,290.25293 L731.928223,290.25293 L731.928223,289.276367 C731.928223,287.811516 731.70036,286.676274 731.244629,285.870605 C730.788897,285.064937 730.048345,284.662109 729.022949,284.662109 Z M754.706543,285.907227 L752.094238,285.833984 C751.361813,285.833984 750.755536,286.013019 750.275391,286.371094 C749.795245,286.729168 749.424969,287.233721 749.164551,287.884766 L749.164551,306 L742.230957,306 L742.230957,279.583984 L748.700684,279.583984 L748.969238,283.124023 L749.091309,283.172852 C749.514488,281.903314 750.104488,280.906416 750.861328,280.182129 C751.618168,279.457841 752.501134,279.095703 753.510254,279.095703 C753.8195,279.095703 754.149087,279.124186 754.499023,279.181152 C754.84896,279.238119 755.154133,279.307291 755.414551,279.388672 L754.706543,285.907227 Z M769.721191,299.09082 C769.721191,298.342119 769.428226,297.695152 768.842285,297.149902 C768.256345,296.604652 767.133309,295.933272 765.473145,295.135742 C762.820136,294.142899 760.83041,293.019863 759.503906,291.766602 C758.177402,290.51334 757.51416,288.885752 757.51416,286.883789 C757.51416,284.735341 758.364575,282.900235 760.06543,281.378418 C761.766285,279.8566 764.016425,279.095703 766.815918,279.095703 C769.74562,279.095703 772.081209,279.876945 773.822754,281.439453 C775.564299,283.001961 776.402507,284.995756 776.337402,287.420898 L776.26416,287.567383 L769.574707,287.567383 C769.574707,286.460606 769.346845,285.581709 768.891113,284.930664 C768.435382,284.279619 767.735519,283.954102 766.791504,283.954102 C766.042802,283.954102 765.408043,284.206378 764.887207,284.710938 C764.366371,285.215497 764.105957,285.825843 764.105957,286.541992 C764.105957,287.323246 764.366371,287.953936 764.887207,288.434082 C765.408043,288.914228 766.539217,289.569332 768.280762,290.399414 C771.047703,291.343429 773.098463,292.462396 774.433105,293.756348 C775.767748,295.050299 776.435059,296.74706 776.435059,298.84668 C776.435059,301.092785 775.539885,302.931959 773.749512,304.364258 C771.959138,305.796557 769.607274,306.512695 766.693848,306.512695 C763.650213,306.512695 761.241383,305.62566 759.467285,303.851562 C757.693188,302.077465 756.846842,300.075532 756.928223,297.845703 L756.977051,297.699219 L763.324707,297.699219 C763.357259,299.098965 763.682777,300.10807 764.30127,300.726562 C764.919762,301.345055 765.774246,301.654297 766.864746,301.654297 C767.792485,301.654297 768.500486,301.426435 768.98877,300.970703 C769.477053,300.514972 769.721191,299.88835 769.721191,299.09082 Z" id="Build-&amp;-Render-Once" fill="#FFFFFF"></path>
            <path d="M158.863,239.789 L652.54,239.789" id="Line-2" stroke="#FFFFFF" stroke-width="2.052" stroke-linecap="square"></path>
        </g>
    </g>
</svg>