<?xml version="1.0" encoding="UTF-8"?>
<svg width="800px" height="316px" viewBox="0 0 800 316" version="1.1" xmlns="http://www.w3.org/2000/svg" xmlns:xlink="http://www.w3.org/1999/xlink">
    <!-- Generator: Sketch 48.2 (47327) - http://www.bohemiancoding.com/sketch -->
    <title>designed to scale copy 2</title>
    <desc>Created with Sketch.</desc>
    <defs></defs>
    <g id="Carousel" stroke="none" stroke-width="1" fill="none" fill-rule="evenodd" transform="translate(-185.000000, -2415.000000)">
        <g id="designed-to-scale-copy-2" transform="translate(184.000000, 2415.000000)">
            <path d="M21.13551,153.59822 C21.9494741,154.268543 22.9908537,155.166284 24.25968,156.29147 C25.5285063,157.416656 26.9768619,158.529854 28.60479,159.6311 C31.0466822,161.259028 33.464598,162.527835 35.85861,163.43756 C38.252622,164.347285 40.7662968,164.80214 43.39971,164.80214 C45.8416022,164.80214 47.8884517,164.526833 49.54032,163.97621 C51.1921883,163.425587 52.4969052,162.695425 53.45451,161.7857 C54.4121148,160.875975 55.094398,159.822626 55.50138,158.62562 C55.908362,157.428614 56.11185,156.159807 56.11185,154.81916 C56.11185,153.334873 55.5492656,152.006216 54.42408,150.83315 C53.2988944,149.660084 51.9223581,148.618705 50.29443,147.70898 C48.6665019,146.799255 46.9667789,146.021213 45.19521,145.37483 C43.4236411,144.728447 41.8914965,144.189802 40.59873,143.75888 C34.8531013,141.74791 29.8257515,139.581362 25.51653,137.25917 C21.2073085,134.936978 17.6163444,132.351484 14.74353,129.50261 C11.8707156,126.653736 9.71613718,123.517627 8.27973,120.09419 C6.84332282,116.670753 6.12513,112.852361 6.12513,108.6389 C6.12513,104.186038 7.02287102,100.140218 8.81838,96.50132 C10.613889,92.8624218 13.1754434,89.7502529 16.50312,87.16472 C19.8307966,84.5791871 23.8407065,82.5802171 28.53297,81.16775 C33.2252335,79.7552829 38.468041,79.04906 44.26155,79.04906 C48.6186518,79.04906 52.79614,79.5398251 56.79414,80.52137 C60.79214,81.5029149 64.7302306,83.0709692 68.60853,85.22558 C70.2364581,86.1831848 71.7805727,87.1766849 73.24092,88.20611 C74.7012673,89.2355351 75.9820445,90.2290352 77.08329,91.18664 C78.1845355,92.1442448 79.0583368,93.0539557 79.70472,93.9158 C80.3511032,94.7776443 80.67429,95.5197769 80.67429,96.14222 C80.67429,96.7646631 80.5186816,97.3392174 80.20746,97.8659 C79.8962384,98.3925826 79.4294131,98.9910766 78.80697,99.6614 L67.81851,111.36806 C67.0045459,112.182024 66.1905941,112.589 65.37663,112.589 C64.7063066,112.589 64.0958428,112.397482 63.54522,112.01444 C62.9945972,111.631398 62.3841334,111.152603 61.71381,110.57804 L61.06743,110.00348 C60.1098252,109.189516 59.0445059,108.351624 57.87144,107.48978 C56.6983741,106.627936 55.4415367,105.849893 54.10089,105.15563 C52.7602433,104.461367 51.3477974,103.886812 49.86351,103.43195 C48.3792226,102.977088 46.8710177,102.74966 45.33885,102.74966 C43.7588021,102.74966 42.2745369,102.881329 40.88601,103.14467 C39.4974831,103.408011 38.2765553,103.826957 37.22319,104.40152 C36.1698247,104.976083 35.3319331,105.730185 34.70949,106.66385 C34.0870469,107.597515 33.77583,108.734653 33.77583,110.0753 C33.77583,111.415947 34.1109866,112.577025 34.78131,113.55857 C35.4516334,114.540115 36.4571033,115.449826 37.79775,116.28773 C39.1383967,117.125634 40.8022101,117.915646 42.78924,118.65779 C44.7762699,119.399934 47.0864568,120.201916 49.71987,121.06376 C54.7951754,122.739568 59.4753986,124.499141 63.76068,126.34253 C68.0459614,128.185919 71.7446544,130.364437 74.85687,132.87815 C77.9690856,135.391863 80.3989713,138.396303 82.1466,141.89156 C83.8942287,145.386817 84.76803,149.624155 84.76803,154.6037 C84.76803,159.870526 83.6907408,164.646509 81.53613,168.93179 C79.3815192,173.217071 76.4249588,176.867885 72.66636,179.88434 C68.9077612,182.900795 64.4908754,185.234922 59.41557,186.88679 C54.3402646,188.538658 48.8819992,189.36458 43.04061,189.36458 C37.5343825,189.36458 32.1239966,188.38305 26.80929,186.41996 C21.4945834,184.45687 16.539053,181.823497 11.94255,178.51976 C10.0273404,177.131233 8.41140658,175.766667 7.0947,174.42602 C5.77799342,173.085373 4.73661383,172.008084 3.97053,171.19412 L3.75507,170.97866 C3.70718976,170.8829 3.65931024,170.82305 3.61143,170.79911 C3.56354976,170.77517 3.51567024,170.73926 3.46779,170.69138 C3.41990976,170.59562 3.37203024,170.53577 3.32415,170.51183 C3.27626976,170.48789 3.22839024,170.45198 3.18051,170.4041 C2.07926449,169.207094 1.52865,168.249504 1.52865,167.5313 C1.52865,166.717336 2.07926449,165.807625 3.18051,164.80214 L15.60537,152.95184 C16.610855,152.233636 17.4248069,151.87454 18.04725,151.87454 C18.4781722,151.87454 18.9330276,152.018179 19.41183,152.30546 C19.8906324,152.592741 20.4651866,153.023657 21.13551,153.59822 Z M124.69995,134.70956 C124.69995,138.68362 125.370263,142.394283 126.71091,145.84166 C128.051557,149.289037 129.930828,152.293477 132.34878,154.85507 C134.766732,157.416663 137.627533,159.427603 140.93127,160.88795 C144.235007,162.348297 147.87385,163.07846 151.84791,163.07846 C155.82197,163.07846 159.472783,162.348297 162.80046,160.88795 C166.128137,159.427603 169.000908,157.416663 171.41886,154.85507 C173.836812,152.293477 175.716083,149.289037 177.05673,145.84166 C178.397377,142.394283 179.06769,138.68362 179.06769,134.70956 C179.06769,130.78338 178.397377,127.084687 177.05673,123.61337 C175.716083,120.142053 173.836812,117.113673 171.41886,114.52814 C169.000908,111.942607 166.128137,109.907727 162.80046,108.42344 C159.472783,106.939153 155.82197,106.19702 151.84791,106.19702 C147.87385,106.19702 144.235007,106.939153 140.93127,108.42344 C137.627533,109.907727 134.766732,111.942607 132.34878,114.52814 C129.930828,117.113673 128.051557,120.142053 126.71091,123.61337 C125.370263,127.084687 124.69995,130.78338 124.69995,134.70956 Z M96.97743,134.78138 C96.97743,129.706075 97.6238035,124.834333 98.91657,120.16601 C100.209336,115.497687 102.052698,111.11671 104.44671,107.02295 C106.840722,102.92919 109.701523,99.2065568 113.0292,95.85494 C116.356877,92.5033232 120.05557,89.6425219 124.12539,87.27245 C128.19521,84.9023781 132.564217,83.0590166 137.23254,81.74231 C141.900863,80.4256034 146.772605,79.76726 151.84791,79.76726 C156.875335,79.76726 161.735107,80.4256034 166.42737,81.74231 C171.119633,83.0590166 175.50061,84.9023781 179.57043,87.27245 C183.64025,89.6425219 187.350913,92.5033232 190.70253,95.85494 C194.054147,99.2065568 196.914948,102.92919 199.28502,107.02295 C201.655092,111.11671 203.498453,115.497687 204.81516,120.16601 C206.131867,124.834333 206.79021,129.706075 206.79021,134.78138 C206.79021,139.856685 206.131867,144.728427 204.81516,149.39675 C203.498453,154.065073 201.655092,158.42211 199.28502,162.46799 C196.914948,166.51387 194.054147,170.200593 190.70253,173.52827 C187.350913,176.855947 183.64025,179.716748 179.57043,182.11076 C175.50061,184.504772 171.119633,186.348134 166.42737,187.6409 C161.735107,188.933666 156.875335,189.58004 151.84791,189.58004 C146.772605,189.58004 141.900863,188.933666 137.23254,187.6409 C132.564217,186.348134 128.19521,184.504772 124.12539,182.11076 C120.05557,179.716748 116.356877,176.855947 113.0292,173.52827 C109.701523,170.200593 106.840722,166.51387 104.44671,162.46799 C102.052698,158.42211 100.209336,154.065073 98.91657,149.39675 C97.6238035,144.728427 96.97743,139.856685 96.97743,134.78138 Z M221.87241,84.43556 C221.87241,83.5737157 222.159687,82.8315831 222.73425,82.20914 C223.308813,81.5866969 224.098825,81.27548 225.10431,81.27548 L246.36303,81.27548 C247.176994,81.27548 247.919127,81.5627571 248.58945,82.13732 C249.259773,82.7118829 249.61887,83.4779552 249.66675,84.43556 L249.66675,162.57572 L289.16775,162.57572 C290.029594,162.57572 290.771727,162.862997 291.39417,163.43756 C292.016613,164.012123 292.32783,164.802135 292.32783,165.80762 L292.32783,184.69628 C292.32783,185.510244 292.052523,186.252377 291.5019,186.9227 C290.951277,187.593023 290.173235,187.95212 289.16775,188 L225.03249,188 C222.925759,188 221.87241,186.946651 221.87241,184.83992 L221.87241,84.43556 Z M336.56895,145.41074 C336.56895,148.953878 337.059715,151.958318 338.04126,154.42415 C339.022805,156.889982 340.315552,158.900922 341.91954,160.45703 C343.523528,162.013138 345.390829,163.150276 347.5215,163.86848 C349.652171,164.586684 351.866599,164.94578 354.16485,164.94578 C356.558862,164.94578 358.821169,164.526834 360.95184,163.68893 C363.082511,162.851026 364.949812,161.606158 366.5538,159.95429 C368.157788,158.302422 369.426595,156.255572 370.36026,153.81368 C371.293925,151.371788 371.76075,148.570836 371.76075,145.41074 L371.76075,84.50738 C371.76075,83.6455357 372.059997,82.9034031 372.6585,82.28096 C373.257003,81.6585169 374.058985,81.3473 375.06447,81.3473 L396.03591,81.3473 C397.137156,81.3473 397.998987,81.6704868 398.62143,82.31687 C399.243873,82.9632532 399.55509,83.6934159 399.55509,84.50738 L399.55509,145.05164 C399.55509,153.430682 398.322192,160.468972 395.85636,166.16672 C393.390528,171.864468 390.074871,176.448933 385.90929,179.92025 C381.743709,183.391567 376.919847,185.881302 371.43756,187.38953 C365.955273,188.897758 360.19776,189.65186 354.16485,189.65186 C348.13194,189.65186 342.362458,188.873818 336.85623,187.31771 C331.350002,185.761602 326.514171,183.223988 322.34859,179.70479 C318.183009,176.185592 314.867352,171.589158 312.40152,165.91535 C309.935688,160.241542 308.70279,153.287041 308.70279,145.05164 L308.70279,84.50738 C308.70279,83.6934159 308.978097,82.9632532 309.52872,82.31687 C310.079343,81.6704868 310.761626,81.3473 311.57559,81.3473 L333.12159,81.3473 C333.839794,81.3473 334.593896,81.646547 335.38392,82.24505 C336.173944,82.843553 336.56895,83.5976555 336.56895,84.50738 L336.56895,145.41074 Z M414.56547,84.50738 C414.56547,83.5497752 414.888657,82.7837029 415.53504,82.20914 C416.181423,81.6345771 416.983405,81.3473 417.94101,81.3473 L495.29115,81.3473 C496.152994,81.3473 496.919067,81.6106374 497.58939,82.13732 C498.259713,82.6640026 498.64275,83.4540147 498.73851,84.50738 L498.73851,102.39056 C498.73851,103.252404 498.439263,104.078326 497.84076,104.86835 C497.242257,105.658374 496.392396,106.05338 495.29115,106.05338 L470.51325,106.05338 L470.51325,184.62446 C470.51325,185.486304 470.202033,186.264347 469.57959,186.95861 C468.957147,187.652873 468.143195,188 467.13771,188 L446.02263,188 C445.208666,188 444.442594,187.676813 443.72439,187.03043 C443.006186,186.384047 442.64709,185.582065 442.64709,184.62446 L442.64709,106.05338 L417.94101,106.05338 C416.983405,106.05338 416.181423,105.742163 415.53504,105.11972 C414.888657,104.497277 414.56547,103.587566 414.56547,102.39056 L414.56547,84.50738 Z M516.33441,84.50738 C516.33441,83.6455357 516.597747,82.9034031 517.12443,82.28096 C517.651113,81.6585169 518.441125,81.3473 519.49449,81.3473 L540.60957,81.3473 C541.327774,81.3473 542.093846,81.6345771 542.90781,82.20914 C543.721774,82.7837029 544.12875,83.5497752 544.12875,84.50738 L544.12875,184.83992 C544.12875,186.946651 542.955702,188 540.60957,188 L519.49449,188 C517.387759,188 516.33441,186.946651 516.33441,184.83992 L516.33441,84.50738 Z M590.02173,134.70956 C590.02173,138.68362 590.692043,142.394283 592.03269,145.84166 C593.373337,149.289037 595.252608,152.293477 597.67056,154.85507 C600.088512,157.416663 602.949313,159.427603 606.25305,160.88795 C609.556787,162.348297 613.19563,163.07846 617.16969,163.07846 C621.14375,163.07846 624.794563,162.348297 628.12224,160.88795 C631.449917,159.427603 634.322688,157.416663 636.74064,154.85507 C639.158592,152.293477 641.037863,149.289037 642.37851,145.84166 C643.719157,142.394283 644.38947,138.68362 644.38947,134.70956 C644.38947,130.78338 643.719157,127.084687 642.37851,123.61337 C641.037863,120.142053 639.158592,117.113673 636.74064,114.52814 C634.322688,111.942607 631.449917,109.907727 628.12224,108.42344 C624.794563,106.939153 621.14375,106.19702 617.16969,106.19702 C613.19563,106.19702 609.556787,106.939153 606.25305,108.42344 C602.949313,109.907727 600.088512,111.942607 597.67056,114.52814 C595.252608,117.113673 593.373337,120.142053 592.03269,123.61337 C590.692043,127.084687 590.02173,130.78338 590.02173,134.70956 Z M562.29921,134.78138 C562.29921,129.706075 562.945584,124.834333 564.23835,120.16601 C565.531116,115.497687 567.374478,111.11671 569.76849,107.02295 C572.162502,102.92919 575.023303,99.2065568 578.35098,95.85494 C581.678657,92.5033232 585.37735,89.6425219 589.44717,87.27245 C593.51699,84.9023781 597.885997,83.0590166 602.55432,81.74231 C607.222643,80.4256034 612.094385,79.76726 617.16969,79.76726 C622.197115,79.76726 627.056887,80.4256034 631.74915,81.74231 C636.441413,83.0590166 640.82239,84.9023781 644.89221,87.27245 C648.96203,89.6425219 652.672693,92.5033232 656.02431,95.85494 C659.375927,99.2065568 662.236728,102.92919 664.6068,107.02295 C666.976872,111.11671 668.820233,115.497687 670.13694,120.16601 C671.453647,124.834333 672.11199,129.706075 672.11199,134.78138 C672.11199,139.856685 671.453647,144.728427 670.13694,149.39675 C668.820233,154.065073 666.976872,158.42211 664.6068,162.46799 C662.236728,166.51387 659.375927,170.200593 656.02431,173.52827 C652.672693,176.855947 648.96203,179.716748 644.89221,182.11076 C640.82239,184.504772 636.441413,186.348134 631.74915,187.6409 C627.056887,188.933666 622.197115,189.58004 617.16969,189.58004 C612.094385,189.58004 607.222643,188.933666 602.55432,187.6409 C597.885997,186.348134 593.51699,184.504772 589.44717,182.11076 C585.37735,179.716748 581.678657,176.855947 578.35098,173.52827 C575.023303,170.200593 572.162502,166.51387 569.76849,162.46799 C567.374478,158.42211 565.531116,154.065073 564.23835,149.39675 C562.945584,144.728427 562.29921,139.856685 562.29921,134.78138 Z M689.99517,84.50738 C689.99517,83.6455357 690.258507,82.9034031 690.78519,82.28096 C691.311873,81.6585169 692.101885,81.3473 693.15525,81.3473 L716.64039,81.3473 C717.310713,81.3473 718.004966,81.5148783 718.72317,81.85004 C719.441374,82.1852017 720.063807,82.7597559 720.59049,83.57372 C726.67128,93.3891691 732.7041,103.060832 738.68913,112.589 C744.67416,122.117168 750.730919,131.788831 756.85959,141.60428 L756.85959,84.07646 C757.051111,83.2146157 757.434147,82.5443024 758.00871,82.0655 C758.583273,81.5866976 759.253586,81.3473 760.01967,81.3473 L780.48837,81.3473 C781.493855,81.3473 782.331747,81.6226072 783.00207,82.17323 C783.672393,82.7238528 784.00755,83.501895 784.00755,84.50738 L784.00755,185.19902 C784.00755,186.156625 783.720273,186.862848 783.14571,187.31771 C782.571147,187.772572 781.781135,188 780.77565,188 L757.86507,188 C757.242627,188 756.692012,187.784542 756.21321,187.35362 C755.734408,186.922698 755.231673,186.348144 754.70499,185.62994 C748.336918,175.096287 742.040761,164.682491 735.81633,154.38824 C729.591899,144.093989 723.271802,133.680193 716.85585,123.14654 L716.85585,184.83992 C716.85585,185.893285 716.616452,186.683297 716.13765,187.20998 C715.658848,187.736663 714.797016,188 713.55213,188 L693.15525,188 C692.054004,188 691.252023,187.700753 690.74928,187.10225 C690.246537,186.503747 689.99517,185.773584 689.99517,184.91174 L689.99517,84.50738 Z" id="SOLUTION" fill="#64FFDA"></path>
            <path d="M37.88,1.94 L50.78,1.94 C50.42,4.4 50.3,6.62 50.3,10.82 L50.3,42.98 C50.3,46.88 50.42,48.92 50.78,51.86 L37.88,51.86 C38.24,49.34 38.36,47.12 38.36,42.98 L38.36,31.34 L18.14,31.34 L18.14,42.98 C18.14,46.88 18.26,49.16 18.62,51.86 L5.72,51.86 C6.08,49.4 6.2,47.18 6.2,42.98 L6.2,10.82 C6.2,6.68 6.08,4.52 5.72,1.94 L18.62,1.94 C18.26,4.76 18.14,7.1 18.14,10.82 L18.14,20.78 L38.36,20.78 L38.36,10.82 C38.36,6.68 38.24,4.28 37.88,1.94 Z M94.22,36.92 L67.22,36.92 C67.82,41.78 70.64,44.36 75.38,44.36 C77.78,44.36 79.88,43.58 81.44,42.14 C82.34,41.3 82.76,40.64 83.24,39.08 L93.68,42.02 C92.3,45.14 91.4,46.52 89.72,48.2 C86.3,51.56 81.5,53.3 75.56,53.3 C69.68,53.3 65.06,51.62 61.64,48.2 C58.1,44.6 56.18,39.5 56.18,33.56 C56.18,21.68 63.8,13.82 75.26,13.82 C84.62,13.82 91.16,18.92 93.26,27.86 C93.74,29.78 93.98,32.3 94.16,35.72 C94.16,35.96 94.16,36.32 94.22,36.92 Z M67.4,28.64 L82.82,28.64 C81.98,24.8 79.4,22.76 75.26,22.76 C71,22.76 68.42,24.68 67.4,28.64 Z M123.08,28.16 L123.08,26.78 C123.08,23.9 121.34,22.58 117.38,22.58 C113.54,22.58 111.5,23.84 110.6,26.78 L99.14,24.92 C100.34,21.38 101.66,19.46 104.18,17.66 C107.42,15.38 111.86,14.24 117.68,14.24 C122.12,14.24 126.44,15.08 128.78,16.34 C132.62,18.44 134.3,21.74 134.3,27.14 L134.3,43.34 C134.3,47 134.42,49.16 134.72,51.86 L123.08,51.86 L123.08,49.1 C119.72,51.68 116.36,52.7 111.44,52.7 C106.88,52.7 103.46,51.62 101.06,49.4 C98.9,47.42 97.76,44.54 97.76,41.24 C97.76,37.46 99.26,34.46 102.14,32.48 C105.2,30.32 109.22,29.06 114.62,28.58 C116.96,28.34 118.76,28.28 123.08,28.16 Z M123.08,37.52 L123.08,35.84 C117.74,35.96 115.16,36.26 112.7,37.04 C110.54,37.76 109.22,39.26 109.22,41 C109.22,43.16 111.02,44.42 114.14,44.42 C116.6,44.42 119.3,43.52 120.92,42.14 C122.3,40.94 123.08,39.32 123.08,37.52 Z M169.1,51.86 L169.1,49.94 C169.1,49.58 169.1,49.16 169.16,48.62 C165.14,51.86 162.08,52.94 157.04,52.94 C146.12,52.94 139.52,45.62 139.52,33.5 C139.52,27.26 141.32,22.28 144.68,18.86 C147.74,15.8 151.94,14.18 156.86,14.18 C161.72,14.18 165.2,15.44 169.16,18.62 C169.1,17.72 169.1,17.18 169.1,16.34 L169.1,11.36 C169.1,7.16 168.98,4.58 168.62,1.94 L180.92,1.94 C180.56,4.46 180.44,7.34 180.44,11.36 L180.44,42.44 C180.44,46.46 180.56,48.92 180.92,51.86 L169.1,51.86 Z M159.68,23.36 C154.46,23.36 151.16,27.26 151.16,33.56 C151.16,36.98 152.12,39.74 153.92,41.48 C155.36,42.92 157.52,43.76 159.74,43.76 C165.08,43.76 168.98,39.32 168.98,33.38 C168.98,27.56 165.14,23.36 159.68,23.36 Z M187.22,1.94 L199.76,1.94 C199.4,4.46 199.28,6.92 199.28,11 L199.28,42.8 C199.28,46.4 199.4,48.68 199.76,51.86 L187.22,51.86 C187.58,49.16 187.7,47.12 187.7,42.8 L187.7,11 C187.7,6.74 187.58,4.22 187.22,1.94 Z M242.54,36.92 L215.54,36.92 C216.14,41.78 218.96,44.36 223.7,44.36 C226.1,44.36 228.2,43.58 229.76,42.14 C230.66,41.3 231.08,40.64 231.56,39.08 L242,42.02 C240.62,45.14 239.72,46.52 238.04,48.2 C234.62,51.56 229.82,53.3 223.88,53.3 C218,53.3 213.38,51.62 209.96,48.2 C206.42,44.6 204.5,39.5 204.5,33.56 C204.5,21.68 212.12,13.82 223.58,13.82 C232.94,13.82 239.48,18.92 241.58,27.86 C242.06,29.78 242.3,32.3 242.48,35.72 C242.48,35.96 242.48,36.32 242.54,36.92 Z M215.72,28.64 L231.14,28.64 C230.3,24.8 227.72,22.76 223.58,22.76 C219.32,22.76 216.74,24.68 215.72,28.64 Z M245.96,40.94 L257.84,39.62 C258.44,42.74 260.48,44.12 264.5,44.12 C268.1,44.12 270.14,43.1 270.14,41.24 C270.14,40.34 269.66,39.56 268.82,39.08 C267.98,38.6 267.2,38.36 263.9,37.7 C259.34,36.8 257,36.2 255.02,35.54 C252.14,34.46 250.16,33.08 249.02,31.28 C248.06,29.66 247.52,27.62 247.52,25.58 C247.52,18.38 253.58,14 263.6,14 C269.3,14 273.56,15.26 276.38,17.84 C278.36,19.58 279.32,21.32 280.28,24.68 L268.7,25.94 C268.4,23.48 266.9,22.4 263.66,22.4 C260.54,22.4 258.62,23.42 258.62,24.98 C258.62,26.6 259.88,27.2 265.82,28.52 C271.7,29.78 273.56,30.32 275.66,31.4 C279.56,33.32 281.42,36.26 281.42,40.58 C281.42,43.76 280.34,46.64 278.36,48.56 C275.48,51.44 270.56,52.94 264.14,52.94 C256.58,52.94 251.24,50.9 248.36,46.94 C247.16,45.26 246.56,43.82 245.96,40.94 Z M285.2,40.94 L297.08,39.62 C297.68,42.74 299.72,44.12 303.74,44.12 C307.34,44.12 309.38,43.1 309.38,41.24 C309.38,40.34 308.9,39.56 308.06,39.08 C307.22,38.6 306.44,38.36 303.14,37.7 C298.58,36.8 296.24,36.2 294.26,35.54 C291.38,34.46 289.4,33.08 288.26,31.28 C287.3,29.66 286.76,27.62 286.76,25.58 C286.76,18.38 292.82,14 302.84,14 C308.54,14 312.8,15.26 315.62,17.84 C317.6,19.58 318.56,21.32 319.52,24.68 L307.94,25.94 C307.64,23.48 306.14,22.4 302.9,22.4 C299.78,22.4 297.86,23.42 297.86,24.98 C297.86,26.6 299.12,27.2 305.06,28.52 C310.94,29.78 312.8,30.32 314.9,31.4 C318.8,33.32 320.66,36.26 320.66,40.58 C320.66,43.76 319.58,46.64 317.6,48.56 C314.72,51.44 309.8,52.94 303.38,52.94 C295.82,52.94 290.48,50.9 287.6,46.94 C286.4,45.26 285.8,43.82 285.2,40.94 Z M383.96,41.06 L383.96,52.28 C381.38,51.98 379.22,51.86 374.06,51.86 L355.16,51.86 C350.6,51.86 348.92,51.92 346.34,52.04 C346.7,49.64 346.82,47.42 346.82,43.28 L346.82,10.52 C346.82,6.8 346.7,4.7 346.34,1.76 C348.8,1.88 350.48,1.94 355.16,1.94 L374.3,1.94 C378.38,1.94 380.42,1.82 383.24,1.52 L383.24,12.74 C380.48,12.44 378.32,12.32 374.3,12.32 L358.7,12.32 L358.7,21.14 L371.66,21.14 C375.62,21.14 377.06,21.08 380.66,20.72 L380.66,31.82 C377.84,31.52 375.8,31.4 371.66,31.4 L358.7,31.4 L358.7,41.48 L374.18,41.48 C378.74,41.48 381.38,41.36 383.96,41.06 Z M388.82,38.54 L388.82,27.14 C390.68,27.44 392.36,27.56 394.64,27.56 L406.52,27.56 C408.8,27.56 410.48,27.44 412.34,27.14 L412.34,38.54 C410.36,38.24 408.74,38.12 406.52,38.12 L394.64,38.12 C392.42,38.12 390.8,38.24 388.82,38.54 Z M462.92,16.94 L450.56,19.34 C449.42,13.88 446.24,11.18 441.08,11.18 C433.76,11.18 429.5,16.94 429.5,26.84 C429.5,36.62 433.94,42.56 441.38,42.56 C444.68,42.56 447.5,41.18 449.24,38.78 C450.26,37.34 450.68,36.14 451.04,33.62 L463.52,35.48 C462.38,40.58 461.06,43.52 458.54,46.46 C454.82,50.72 449,53 441.74,53 C434.42,53 428.24,50.72 423.98,46.4 C419.54,41.9 417.02,34.88 417.02,26.84 C417.02,18.68 419.54,11.78 424.28,7.1 C428.42,3.08 434.48,0.86 441.5,0.86 C449.24,0.86 455.3,3.5 459.2,8.72 C461.12,11.18 462.14,13.4 462.92,16.94 Z M486.86,53.24 C474.8,53.24 467.12,45.56 467.12,33.5 C467.12,21.5 474.8,13.88 486.92,13.88 C499.04,13.88 506.72,21.5 506.72,33.38 C506.72,45.32 498.8,53.24 486.86,53.24 Z M486.98,22.88 C481.7,22.88 478.58,26.84 478.58,33.44 C478.58,40.1 481.7,44.12 486.92,44.12 C492.14,44.12 495.14,40.22 495.14,33.56 C495.14,26.84 492.08,22.88 486.98,22.88 Z M523.94,51.86 L511.58,51.86 C511.94,49.1 512.06,46.58 512.06,42.8 L512.06,24.32 C512.06,19.76 511.94,17.6 511.58,15.26 L523.46,15.26 L523.46,17.78 C523.46,18.02 523.46,18.02 523.4,18.62 L523.4,19.22 C526.46,15.86 530.12,14.3 534.86,14.3 C537.98,14.3 540.56,15.02 542.54,16.46 C543.62,17.24 544.22,17.96 545,19.46 C548.72,15.8 552.38,14.24 557.6,14.24 C566.18,14.24 570.56,18.92 570.56,27.98 L570.56,42.86 C570.56,46.58 570.68,49.04 571.04,51.86 L558.56,51.86 C558.92,49.04 559.04,46.88 559.04,42.8 L559.04,30.44 C559.04,25.94 557.72,24.2 554.3,24.2 C551.24,24.2 548.48,26.6 546.98,30.62 L546.98,42.86 C546.98,46.46 547.1,48.98 547.46,51.86 L534.98,51.86 C535.34,49.16 535.46,46.64 535.46,42.8 L535.46,30.44 C535.46,27.92 535.22,26.78 534.44,25.76 C533.78,24.8 532.58,24.26 531.14,24.26 C527.9,24.26 525.14,26.6 523.46,30.68 L523.46,42.8 C523.46,46.58 523.58,48.92 523.94,51.86 Z M589.64,51.86 L577.28,51.86 C577.64,49.1 577.76,46.58 577.76,42.8 L577.76,24.32 C577.76,19.76 577.64,17.6 577.28,15.26 L589.16,15.26 L589.16,17.78 C589.16,18.02 589.16,18.02 589.1,18.62 L589.1,19.22 C592.16,15.86 595.82,14.3 600.56,14.3 C603.68,14.3 606.26,15.02 608.24,16.46 C609.32,17.24 609.92,17.96 610.7,19.46 C614.42,15.8 618.08,14.24 623.3,14.24 C631.88,14.24 636.26,18.92 636.26,27.98 L636.26,42.86 C636.26,46.58 636.38,49.04 636.74,51.86 L624.26,51.86 C624.62,49.04 624.74,46.88 624.74,42.8 L624.74,30.44 C624.74,25.94 623.42,24.2 620,24.2 C616.94,24.2 614.18,26.6 612.68,30.62 L612.68,42.86 C612.68,46.46 612.8,48.98 613.16,51.86 L600.68,51.86 C601.04,49.16 601.16,46.64 601.16,42.8 L601.16,30.44 C601.16,27.92 600.92,26.78 600.14,25.76 C599.48,24.8 598.28,24.26 596.84,24.26 C593.6,24.26 590.84,26.6 589.16,30.68 L589.16,42.8 C589.16,46.58 589.28,48.92 589.64,51.86 Z M679.46,36.92 L652.46,36.92 C653.06,41.78 655.88,44.36 660.62,44.36 C663.02,44.36 665.12,43.58 666.68,42.14 C667.58,41.3 668,40.64 668.48,39.08 L678.92,42.02 C677.54,45.14 676.64,46.52 674.96,48.2 C671.54,51.56 666.74,53.3 660.8,53.3 C654.92,53.3 650.3,51.62 646.88,48.2 C643.34,44.6 641.42,39.5 641.42,33.56 C641.42,21.68 649.04,13.82 660.5,13.82 C669.86,13.82 676.4,18.92 678.5,27.86 C678.98,29.78 679.22,32.3 679.4,35.72 C679.4,35.96 679.4,36.32 679.46,36.92 Z M652.64,28.64 L668.06,28.64 C667.22,24.8 664.64,22.76 660.5,22.76 C656.24,22.76 653.66,24.68 652.64,28.64 Z M714.14,15.26 L711.26,26.06 C708.5,25.22 707,24.92 705.14,24.92 C702.08,24.92 699.74,26 698,28.16 C696.86,29.6 696.44,30.86 696.2,33.5 L696.2,42.86 C696.2,46.7 696.32,48.98 696.68,51.86 L684.26,51.86 C684.62,48.86 684.74,46.7 684.74,42.8 L684.74,24.32 C684.74,19.94 684.62,17.84 684.26,15.26 L696.2,15.26 L696.2,20 C699.14,16.16 702.74,14.54 708.2,14.54 C710.12,14.54 711.32,14.66 714.14,15.26 Z M753.08,26.36 L742.28,28.58 C741.74,26.78 741.38,25.94 740.6,25.04 C739.4,23.66 737.72,22.94 735.56,22.94 C730.7,22.94 727.82,26.78 727.82,33.38 C727.82,39.86 730.88,44.06 735.68,44.06 C738.02,44.06 740.18,43.1 741.38,41.42 C741.92,40.64 742.22,40.04 742.46,38.66 L753.5,40.4 C752.84,42.98 752.12,44.6 750.98,46.34 C747.98,50.78 742.52,53.24 735.56,53.24 C729.8,53.24 724.88,51.44 721.58,48.08 C718.1,44.66 716.18,39.38 716.18,33.5 C716.18,21.5 723.74,13.82 735.44,13.82 C744.68,13.82 751.1,18.38 753.08,26.36 Z M794.66,36.92 L767.66,36.92 C768.26,41.78 771.08,44.36 775.82,44.36 C778.22,44.36 780.32,43.58 781.88,42.14 C782.78,41.3 783.2,40.64 783.68,39.08 L794.12,42.02 C792.74,45.14 791.84,46.52 790.16,48.2 C786.74,51.56 781.94,53.3 776,53.3 C770.12,53.3 765.5,51.62 762.08,48.2 C758.54,44.6 756.62,39.5 756.62,33.56 C756.62,21.68 764.24,13.82 775.7,13.82 C785.06,13.82 791.6,18.92 793.7,27.86 C794.18,29.78 794.42,32.3 794.6,35.72 C794.6,35.96 794.6,36.32 794.66,36.92 Z M767.84,28.64 L783.26,28.64 C782.42,24.8 779.84,22.76 775.7,22.76 C771.44,22.76 768.86,24.68 767.84,28.64 Z" id="Headless-E-Commerce" fill="#FFFFFF"></path>
            <path d="M26.9431152,284.97998 L12.229248,284.97998 L12.229248,303 L3.74047852,303 L3.74047852,259.632812 L29.5344238,259.632812 L29.5344238,266.423828 L12.229248,266.423828 L12.229248,278.21875 L26.9431152,278.21875 L26.9431152,284.97998 Z M31.8278809,284.92041 C31.8278809,280.591612 32.9745979,277.052178 35.2680664,274.302002 C37.5615349,271.551825 40.7733355,270.176758 44.9035645,270.176758 C49.0337934,270.176758 52.2505581,271.551825 54.5539551,274.302002 C56.857352,277.052178 58.0090332,280.591612 58.0090332,284.92041 L58.0090332,288.911621 C58.0090332,293.280133 56.857352,296.824531 54.5539551,299.544922 C52.2505581,302.265313 49.0437217,303.625488 44.9333496,303.625488 C40.7832638,303.625488 37.5615349,302.265313 35.2680664,299.544922 C32.9745979,296.824531 31.8278809,293.280133 31.8278809,288.911621 L31.8278809,284.92041 Z M40.2570801,288.911621 C40.2570801,291.39373 40.6045701,293.339674 41.2995605,294.749512 C41.994551,296.159349 43.2058019,296.864258 44.9333496,296.864258 C46.6013267,296.864258 47.7877569,296.154385 48.4926758,294.734619 C49.1975947,293.314853 49.5500488,291.373873 49.5500488,288.911621 L49.5500488,284.92041 C49.5500488,282.497872 49.1975947,280.56682 48.4926758,279.127197 C47.7877569,277.687574 46.5913984,276.967773 44.9035645,276.967773 C43.2157305,276.967773 42.019372,277.692538 41.3144531,279.14209 C40.6095342,280.591641 40.2570801,282.517729 40.2570801,284.92041 L40.2570801,288.911621 Z M77.6970215,278.486816 L74.5100098,278.397461 C73.6164506,278.397461 72.8767933,278.615883 72.2910156,279.052734 C71.705238,279.489586 71.2535009,280.105139 70.935791,280.899414 L70.935791,303 L62.4768066,303 L62.4768066,270.772461 L70.369873,270.772461 L70.6975098,275.091309 L70.8464355,275.150879 C71.3627142,273.602043 72.0825149,272.385828 73.0058594,271.502197 C73.9292038,270.618567 75.0064229,270.176758 76.2375488,270.176758 C76.6148294,270.176758 77.0169249,270.211507 77.4438477,270.281006 C77.8707704,270.350505 78.2430811,270.434895 78.560791,270.53418 L77.6970215,278.486816 Z M111.056396,303 C110.818114,302.463865 110.604656,301.878096 110.416016,301.242676 C110.227375,300.607256 110.083415,299.961917 109.984131,299.306641 C109.189856,300.617194 108.221848,301.664628 107.080078,302.448975 C105.938308,303.233321 104.612882,303.625488 103.10376,303.625488 C100.442939,303.625488 98.3133218,302.751799 96.7148438,301.004395 C95.1163657,299.25699 94.3171387,296.923843 94.3171387,294.004883 C94.3171387,290.84764 95.334788,288.395354 97.3701172,286.647949 C99.4054464,284.900545 102.42861,284.026855 106.439697,284.026855 L109.626709,284.026855 L109.626709,281.405762 C109.626709,279.837069 109.343753,278.630782 108.777832,277.786865 C108.211911,276.942948 107.363043,276.520996 106.231201,276.520996 C105.278071,276.520996 104.563235,276.858558 104.08667,277.533691 C103.610105,278.208825 103.371826,279.191725 103.371826,280.482422 L95.1809082,280.452637 L95.0915527,280.273926 C94.9922684,277.474107 96.0297743,275.091318 98.2041016,273.125488 C100.378429,271.159658 103.242739,270.176758 106.797119,270.176758 C110.15293,270.176758 112.878245,271.154694 114.973145,273.110596 C117.068044,275.066497 118.115479,277.851382 118.115479,281.465332 L118.115479,294.51123 C118.115479,296.09978 118.22469,297.579095 118.443115,298.949219 C118.661541,300.319343 118.999103,301.66959 119.455811,303 L111.056396,303 Z M105.546143,297.251465 C106.399988,297.251465 107.189287,297.023114 107.914062,296.566406 C108.638838,296.109698 109.209715,295.523929 109.626709,294.809082 L109.626709,288.881836 L106.439697,288.881836 C105.149001,288.881836 104.215742,289.328609 103.639893,290.222168 C103.064043,291.115727 102.776123,292.247552 102.776123,293.617676 C102.776123,294.689947 103.02433,295.563636 103.520752,296.23877 C104.017174,296.913903 104.692297,297.251465 105.546143,297.251465 Z M150.87915,294.570801 C150.87915,293.657385 150.521732,292.868086 149.806885,292.202881 C149.092037,291.537676 147.721934,290.718592 145.696533,289.745605 C142.459863,288.534336 140.032397,287.164233 138.414063,285.635254 C136.795728,284.106275 135.986572,282.120618 135.986572,279.678223 C135.986572,277.057116 137.024078,274.818287 139.099121,272.96167 C141.174164,271.105053 143.919335,270.176758 147.334717,270.176758 C150.908953,270.176758 153.758372,271.129873 155.883057,273.036133 C158.007742,274.942392 159.030355,277.374822 158.950928,280.333496 L158.861572,280.512207 L150.700439,280.512207 C150.700439,279.16194 150.422447,278.089685 149.866455,277.29541 C149.310463,276.501135 148.45663,276.104004 147.304932,276.104004 C146.391516,276.104004 145.617109,276.411781 144.981689,277.027344 C144.34627,277.642907 144.028564,278.387528 144.028564,279.26123 C144.028564,280.21436 144.34627,280.983802 144.981689,281.56958 C145.617109,282.155358 146.997141,282.954585 149.121826,283.967285 C152.497494,285.118984 154.999422,286.484123 156.627686,288.062744 C158.255949,289.641365 159.070068,291.711413 159.070068,294.272949 C159.070068,297.013197 157.977957,299.25699 155.793701,301.004395 C153.609445,302.751799 150.740171,303.625488 147.185791,303.625488 C143.472556,303.625488 140.533784,302.543305 138.369385,300.378906 C136.204986,298.214507 135.172444,295.772149 135.271729,293.051758 L135.331299,292.873047 L143.075439,292.873047 C143.115153,294.580738 143.512285,295.811845 144.266846,296.566406 C145.021407,297.320967 146.063877,297.698242 147.394287,297.698242 C148.526129,297.698242 149.38989,297.42025 149.985596,296.864258 C150.581302,296.308265 150.87915,295.543787 150.87915,294.570801 Z M175.839111,303.625488 C171.78831,303.625488 168.571545,302.295098 166.188721,299.634277 C163.805896,296.973457 162.614502,293.617696 162.614502,289.566895 L162.614502,285.039551 C162.614502,280.690896 163.721506,277.126642 165.935547,274.34668 C168.149588,271.566718 171.212464,270.176758 175.124268,270.176758 C178.897073,270.176758 181.815989,271.43765 183.881104,273.959473 C185.946218,276.481295 186.97876,279.916482 186.97876,284.265137 L186.97876,289.447754 L171.043701,289.447754 L171.043701,289.566895 C171.043701,291.69158 171.525223,293.438958 172.488281,294.809082 C173.451339,296.179206 174.905833,296.864258 176.851807,296.864258 C178.440356,296.864258 179.731033,296.685549 180.723877,296.328125 C181.71672,295.970701 182.898187,295.375004 184.268311,294.541016 L186.412842,299.932129 C185.300857,301.0044 183.816578,301.888017 181.959961,302.583008 C180.103344,303.277998 178.063081,303.625488 175.839111,303.625488 Z M175.124268,276.967773 C173.774,276.967773 172.781172,277.583327 172.145752,278.814453 C171.510332,280.045579 171.152914,281.703603 171.073486,283.788574 L178.668701,283.788574 L178.668701,282.597168 C178.668701,280.81005 178.390709,279.425054 177.834717,278.442139 C177.278724,277.459224 176.37525,276.967773 175.124268,276.967773 Z M203.003174,296.864258 C204.154872,296.864258 205.023597,296.437342 205.609375,295.583496 C206.195153,294.729651 206.488037,293.498543 206.488037,291.890137 L214.172607,291.890137 L214.261963,292.068848 C214.321534,295.444516 213.284028,298.214507 211.149414,300.378906 C209.014801,302.543305 206.299414,303.625488 203.003174,303.625488 C198.833231,303.625488 195.631359,302.265313 193.397461,299.544922 C191.163563,296.824531 190.046631,293.309917 190.046631,289.000977 L190.046631,284.86084 C190.046631,280.571756 191.158599,277.052178 193.382568,274.302002 C195.606538,271.551825 198.793518,270.176758 202.943604,270.176758 C206.438413,270.176758 209.213369,271.298654 211.268555,273.54248 C213.323741,275.786307 214.321534,278.814434 214.261963,282.626953 L214.202393,282.775879 L206.488037,282.775879 C206.488037,281.028474 206.195153,279.623622 205.609375,278.561279 C205.023597,277.498937 204.135016,276.967773 202.943604,276.967773 C201.25577,276.967773 200.09416,277.68261 199.45874,279.112305 C198.82332,280.541999 198.505615,282.458159 198.505615,284.86084 L198.505615,289.000977 C198.505615,291.463228 198.82332,293.389316 199.45874,294.779297 C200.09416,296.169278 201.275626,296.864258 203.003174,296.864258 Z M234.69458,299.276855 C233.820878,300.686693 232.763515,301.763912 231.522461,302.508545 C230.281407,303.253178 228.876554,303.625488 227.307861,303.625488 C224.428615,303.625488 222.179858,302.538341 220.561523,300.364014 C218.943189,298.189686 218.134033,294.819033 218.134033,290.251953 L218.134033,270.772461 L226.593018,270.772461 L226.593018,290.311523 C226.593018,292.595064 226.87101,294.253087 227.427002,295.285645 C227.982994,296.318202 228.807042,296.834473 229.89917,296.834473 C230.832443,296.834473 231.651526,296.660728 232.356445,296.313232 C233.061364,295.965737 233.662026,295.45443 234.158447,294.779297 L234.158447,270.772461 L242.647217,270.772461 L242.647217,303 L235.200928,303 L234.69458,299.276855 Z M263.198975,278.486816 L260.011963,278.397461 C259.118404,278.397461 258.378746,278.615883 257.792969,279.052734 C257.207191,279.489586 256.755454,280.105139 256.437744,280.899414 L256.437744,303 L247.97876,303 L247.97876,270.772461 L255.871826,270.772461 L256.199463,275.091309 L256.348389,275.150879 C256.864667,273.602043 257.584468,272.385828 258.507812,271.502197 C259.431157,270.618567 260.508376,270.176758 261.739502,270.176758 C262.116782,270.176758 262.518878,270.211507 262.945801,270.281006 C263.372723,270.350505 263.745034,270.434895 264.062744,270.53418 L263.198975,278.486816 Z M279.46167,303.625488 C275.410868,303.625488 272.194104,302.295098 269.811279,299.634277 C267.428455,296.973457 266.237061,293.617696 266.237061,289.566895 L266.237061,285.039551 C266.237061,280.690896 267.344064,277.126642 269.558105,274.34668 C271.772146,271.566718 274.835023,270.176758 278.746826,270.176758 C282.519631,270.176758 285.438548,271.43765 287.503662,273.959473 C289.568777,276.481295 290.601318,279.916482 290.601318,284.265137 L290.601318,289.447754 L274.66626,289.447754 L274.66626,289.566895 C274.66626,291.69158 275.147782,293.438958 276.11084,294.809082 C277.073898,296.179206 278.528392,296.864258 280.474365,296.864258 C282.062915,296.864258 283.353592,296.685549 284.346436,296.328125 C285.339279,295.970701 286.520745,295.375004 287.890869,294.541016 L290.0354,299.932129 C288.923416,301.0044 287.439137,301.888017 285.58252,302.583008 C283.725902,303.277998 281.685639,303.625488 279.46167,303.625488 Z M278.746826,276.967773 C277.396559,276.967773 276.40373,277.583327 275.768311,278.814453 C275.132891,280.045579 274.775472,281.703603 274.696045,283.788574 L282.29126,283.788574 L282.29126,282.597168 C282.29126,280.81005 282.013268,279.425054 281.457275,278.442139 C280.901283,277.459224 279.997809,276.967773 278.746826,276.967773 Z M302.783447,302.94043 L298.4646,312.203613 L293.520264,312.203613 L295.277588,302.702148 L295.277588,295.821777 L302.783447,295.821777 L302.783447,302.94043 Z M320.773682,285.396973 C320.773682,280.849749 321.711905,277.176284 323.588379,274.376465 C325.464853,271.576646 328.110741,270.176758 331.526123,270.176758 C332.955818,270.176758 334.21671,270.53914 335.308838,271.263916 C336.400966,271.988692 337.354081,273.026198 338.168213,274.376465 L338.704346,270.772461 L346.061279,270.772461 L346.061279,302.374512 C346.061279,306.604025 344.835136,309.934965 342.382813,312.367432 C339.930489,314.799898 336.569764,316.016113 332.300537,316.016113 C330.910556,316.016113 329.431242,315.792727 327.862549,315.345947 C326.293856,314.899168 324.834398,314.298506 323.484131,313.543945 L324.973389,307.020996 C326.10523,307.656416 327.256911,308.132974 328.428467,308.450684 C329.600022,308.768394 330.870843,308.927246 332.240967,308.927246 C334.028085,308.927246 335.368404,308.366298 336.261963,307.244385 C337.155522,306.122472 337.602295,304.489269 337.602295,302.344727 L337.602295,300.498047 C336.80802,301.530604 335.904546,302.309975 334.891846,302.836182 C333.879145,303.362389 332.737392,303.625488 331.466553,303.625488 C328.071028,303.625488 325.440032,302.319919 323.573486,299.70874 C321.706941,297.097562 320.773682,293.647482 320.773682,289.358398 L320.773682,285.396973 Z M329.232666,289.358398 C329.232666,291.701509 329.570228,293.533278 330.245361,294.85376 C330.920495,296.174242 332.05232,296.834473 333.640869,296.834473 C334.514571,296.834473 335.284014,296.655764 335.949219,296.29834 C336.614424,295.940916 337.165444,295.414717 337.602295,294.719727 L337.602295,279.469727 C337.165444,278.675452 336.624352,278.059898 335.979004,277.623047 C335.333656,277.186196 334.574142,276.967773 333.700439,276.967773 C332.11189,276.967773 330.970137,277.737216 330.275146,279.276123 C329.580156,280.81503 329.232666,282.855293 329.232666,285.396973 L329.232666,289.358398 Z M360.358154,303 L351.89917,303 L351.89917,270.772461 L360.358154,270.772461 L360.358154,303 Z M360.358154,262.998535 L351.89917,262.998535 L351.89917,256.535156 L360.358154,256.535156 L360.358154,262.998535 Z M376.322998,262.760254 L376.322998,270.772461 L380.790771,270.772461 L380.790771,276.908203 L376.322998,276.908203 L376.322998,293.081543 C376.322998,294.392096 376.511635,295.330319 376.888916,295.89624 C377.266197,296.462161 377.782467,296.745117 378.437744,296.745117 C378.954023,296.745117 379.390867,296.720296 379.748291,296.670654 C380.105715,296.621012 380.502846,296.536622 380.939697,296.41748 L381.594971,302.851074 C380.701412,303.12907 379.847579,303.327636 379.033447,303.446777 C378.219316,303.565919 377.295985,303.625488 376.263428,303.625488 C373.543037,303.625488 371.463061,302.786548 370.023438,301.108643 C368.583814,299.430737 367.864014,296.764992 367.864014,293.111328 L367.864014,276.908203 L364.051514,276.908203 L364.051514,270.772461 L367.864014,270.772461 L367.864014,262.760254 L376.322998,262.760254 Z M401.193604,287.779785 L386.390381,287.779785 L386.390381,280.98877 L401.193604,280.98877 L401.193604,287.779785 Z M419.60083,296.864258 C420.752529,296.864258 421.621254,296.437342 422.207031,295.583496 C422.792809,294.729651 423.085693,293.498543 423.085693,291.890137 L430.770264,291.890137 L430.859619,292.068848 C430.91919,295.444516 429.881684,298.214507 427.74707,300.378906 C425.612457,302.543305 422.897071,303.625488 419.60083,303.625488 C415.430887,303.625488 412.229015,302.265313 409.995117,299.544922 C407.761219,296.824531 406.644287,293.309917 406.644287,289.000977 L406.644287,284.86084 C406.644287,280.571756 407.756255,277.052178 409.980225,274.302002 C412.204194,271.551825 415.391174,270.176758 419.54126,270.176758 C423.036069,270.176758 425.811025,271.298654 427.866211,273.54248 C429.921397,275.786307 430.91919,278.814434 430.859619,282.626953 L430.800049,282.775879 L423.085693,282.775879 C423.085693,281.028474 422.792809,279.623622 422.207031,278.561279 C421.621254,277.498937 420.732672,276.967773 419.54126,276.967773 C417.853426,276.967773 416.691816,277.68261 416.056396,279.112305 C415.420977,280.541999 415.103271,282.458159 415.103271,284.86084 L415.103271,289.000977 C415.103271,291.463228 415.420977,293.389316 416.056396,294.779297 C416.691816,296.169278 417.873282,296.864258 419.60083,296.864258 Z M447.479736,303.625488 C443.428935,303.625488 440.21217,302.295098 437.829346,299.634277 C435.446521,296.973457 434.255127,293.617696 434.255127,289.566895 L434.255127,285.039551 C434.255127,280.690896 435.362131,277.126642 437.576172,274.34668 C439.790213,271.566718 442.853089,270.176758 446.764893,270.176758 C450.537698,270.176758 453.456614,271.43765 455.521729,273.959473 C457.586843,276.481295 458.619385,279.916482 458.619385,284.265137 L458.619385,289.447754 L442.684326,289.447754 L442.684326,289.566895 C442.684326,291.69158 443.165848,293.438958 444.128906,294.809082 C445.091964,296.179206 446.546458,296.864258 448.492432,296.864258 C450.080981,296.864258 451.371658,296.685549 452.364502,296.328125 C453.357345,295.970701 454.538812,295.375004 455.908936,294.541016 L458.053467,299.932129 C456.941482,301.0044 455.457203,301.888017 453.600586,302.583008 C451.743969,303.277998 449.703706,303.625488 447.479736,303.625488 Z M446.764893,276.967773 C445.414625,276.967773 444.421797,277.583327 443.786377,278.814453 C443.150957,280.045579 442.793539,281.703603 442.714111,283.788574 L450.309326,283.788574 L450.309326,282.597168 C450.309326,280.81005 450.031334,279.425054 449.475342,278.442139 C448.919349,277.459224 448.015875,276.967773 446.764893,276.967773 Z M470.622803,270.772461 L470.980225,275.210449 C471.873784,273.6219 472.970859,272.385828 474.271484,271.502197 C475.572109,270.618567 477.006747,270.176758 478.575439,270.176758 C481.256117,270.176758 483.365878,271.2093 484.904785,273.274414 C486.443693,275.339529 487.213135,278.586078 487.213135,283.01416 L487.213135,303 L478.724365,303 L478.724365,283.01416 C478.724365,280.790191 478.411624,279.226486 477.786133,278.322998 C477.160641,277.41951 476.192634,276.967773 474.88208,276.967773 C474.127519,276.967773 473.432539,277.166339 472.797119,277.563477 C472.161699,277.960614 471.625572,278.50667 471.188721,279.20166 L471.188721,303 L462.729736,303 L462.729736,270.772461 L470.622803,270.772461 Z M502.582275,262.760254 L502.582275,270.772461 L507.050049,270.772461 L507.050049,276.908203 L502.582275,276.908203 L502.582275,293.081543 C502.582275,294.392096 502.770913,295.330319 503.148193,295.89624 C503.525474,296.462161 504.041745,296.745117 504.697021,296.745117 C505.2133,296.745117 505.650145,296.720296 506.007568,296.670654 C506.364992,296.621012 506.762123,296.536622 507.198975,296.41748 L507.854248,302.851074 C506.960689,303.12907 506.106856,303.327636 505.292725,303.446777 C504.478593,303.565919 503.555262,303.625488 502.522705,303.625488 C499.802314,303.625488 497.722338,302.786548 496.282715,301.108643 C494.843092,299.430737 494.123291,296.764992 494.123291,293.111328 L494.123291,276.908203 L490.310791,276.908203 L490.310791,270.772461 L494.123291,270.772461 L494.123291,262.760254 L502.582275,262.760254 Z M527.035889,278.486816 L523.848877,278.397461 C522.955318,278.397461 522.21566,278.615883 521.629883,279.052734 C521.044105,279.489586 520.592368,280.105139 520.274658,280.899414 L520.274658,303 L511.815674,303 L511.815674,270.772461 L519.70874,270.772461 L520.036377,275.091309 L520.185303,275.150879 C520.701581,273.602043 521.421382,272.385828 522.344727,271.502197 C523.268071,270.618567 524.34529,270.176758 525.576416,270.176758 C525.953697,270.176758 526.355792,270.211507 526.782715,270.281006 C527.209638,270.350505 527.581948,270.434895 527.899658,270.53418 L527.035889,278.486816 Z M540.171143,303 L531.712158,303 L531.712158,270.772461 L540.171143,270.772461 L540.171143,303 Z M540.171143,262.998535 L531.712158,262.998535 L531.712158,256.535156 L540.171143,256.535156 L540.171143,262.998535 Z M557.83374,296.864258 C558.985439,296.864258 559.854164,296.437342 560.439941,295.583496 C561.025719,294.729651 561.318604,293.498543 561.318604,291.890137 L569.003174,291.890137 L569.092529,292.068848 C569.1521,295.444516 568.114594,298.214507 565.97998,300.378906 C563.845367,302.543305 561.129981,303.625488 557.83374,303.625488 C553.663798,303.625488 550.461925,302.265313 548.228027,299.544922 C545.994129,296.824531 544.877197,293.309917 544.877197,289.000977 L544.877197,284.86084 C544.877197,280.571756 545.989165,277.052178 548.213135,274.302002 C550.437104,271.551825 553.624084,270.176758 557.77417,270.176758 C561.268979,270.176758 564.043935,271.298654 566.099121,273.54248 C568.154307,275.786307 569.1521,278.814434 569.092529,282.626953 L569.032959,282.775879 L561.318604,282.775879 C561.318604,281.028474 561.025719,279.623622 560.439941,278.561279 C559.854164,277.498937 558.965582,276.967773 557.77417,276.967773 C556.086336,276.967773 554.924726,277.68261 554.289307,279.112305 C553.653887,280.541999 553.336182,282.458159 553.336182,284.86084 L553.336182,289.000977 C553.336182,291.463228 553.653887,293.389316 554.289307,294.779297 C554.924726,296.169278 556.106193,296.864258 557.83374,296.864258 Z M610.076904,289.060547 L610.255615,289.030762 L613.263916,270.772461 L621.097412,270.772461 L614.485107,303 L607.426025,303 L602.928467,285.635254 L602.749756,285.635254 L598.252197,303 L591.193115,303 L584.52124,270.772461 L592.414307,270.772461 L595.422607,289.120117 L595.601318,289.120117 L600.098877,270.772461 L605.579346,270.772461 L610.076904,289.060547 Z M623.658936,284.92041 C623.658936,280.591612 624.805653,277.052178 627.099121,274.302002 C629.39259,271.551825 632.60439,270.176758 636.734619,270.176758 C640.864848,270.176758 644.081613,271.551825 646.38501,274.302002 C648.688407,277.052178 649.840088,280.591612 649.840088,284.92041 L649.840088,288.911621 C649.840088,293.280133 648.688407,296.824531 646.38501,299.544922 C644.081613,302.265313 640.874776,303.625488 636.764404,303.625488 C632.614318,303.625488 629.39259,302.265313 627.099121,299.544922 C624.805653,296.824531 623.658936,293.280133 623.658936,288.911621 L623.658936,284.92041 Z M632.088135,288.911621 C632.088135,291.39373 632.435625,293.339674 633.130615,294.749512 C633.825606,296.159349 635.036857,296.864258 636.764404,296.864258 C638.432381,296.864258 639.618812,296.154385 640.32373,294.734619 C641.028649,293.314853 641.381104,291.373873 641.381104,288.911621 L641.381104,284.92041 C641.381104,282.497872 641.028649,280.56682 640.32373,279.127197 C639.618812,277.687574 638.422453,276.967773 636.734619,276.967773 C635.046785,276.967773 633.850427,277.692538 633.145508,279.14209 C632.440589,280.591641 632.088135,282.517729 632.088135,284.92041 L632.088135,288.911621 Z M669.528076,278.486816 L666.341064,278.397461 C665.447505,278.397461 664.707848,278.615883 664.12207,279.052734 C663.536293,279.489586 663.084556,280.105139 662.766846,280.899414 L662.766846,303 L654.307861,303 L654.307861,270.772461 L662.200928,270.772461 L662.528564,275.091309 L662.67749,275.150879 C663.193769,273.602043 663.91357,272.385828 664.836914,271.502197 C665.760259,270.618567 666.837478,270.176758 668.068604,270.176758 C668.445884,270.176758 668.84798,270.211507 669.274902,270.281006 C669.701825,270.350505 670.074136,270.434895 670.391846,270.53418 L669.528076,278.486816 Z M683.824951,289.59668 L682.276123,289.59668 L682.276123,303 L673.817139,303 L673.817139,256.535156 L682.276123,256.535156 L682.276123,282.924805 L683.676025,282.924805 L689.126709,270.772461 L698.866455,270.772461 L690.467041,285.277832 L700.266357,303 L690.586182,303 L683.824951,289.59668 Z M704.406494,303 L704.406494,276.908203 L700.445068,276.908203 L700.445068,270.772461 L704.406494,270.772461 L704.406494,267.198242 C704.406494,263.584292 705.339753,260.799408 707.206299,258.843506 C709.072845,256.887604 711.693912,255.909668 715.06958,255.909668 C715.724857,255.909668 716.380124,255.964274 717.0354,256.073486 C717.690677,256.182699 718.445227,256.336588 719.299072,256.535156 L718.584229,263.02832 C718.187091,262.948893 717.804852,262.879395 717.4375,262.819824 C717.070148,262.760254 716.638267,262.730469 716.141846,262.730469 C715.069575,262.730469 714.255455,263.117672 713.699463,263.89209 C713.143471,264.666508 712.865479,265.768548 712.865479,267.198242 L712.865479,270.772461 L718.048096,270.772461 L718.048096,276.908203 L712.865479,276.908203 L712.865479,303 L704.406494,303 Z M730.617432,303 L722.158447,303 L722.158447,256.535156 L730.617432,256.535156 L730.617432,303 Z M735.502197,284.92041 C735.502197,280.591612 736.648914,277.052178 738.942383,274.302002 C741.235851,271.551825 744.447652,270.176758 748.577881,270.176758 C752.70811,270.176758 755.924875,271.551825 758.228271,274.302002 C760.531668,277.052178 761.68335,280.591612 761.68335,284.92041 L761.68335,288.911621 C761.68335,293.280133 760.531668,296.824531 758.228271,299.544922 C755.924875,302.265313 752.718038,303.625488 748.607666,303.625488 C744.45758,303.625488 741.235851,302.265313 738.942383,299.544922 C736.648914,296.824531 735.502197,293.280133 735.502197,288.911621 L735.502197,284.92041 Z M743.931396,288.911621 C743.931396,291.39373 744.278886,293.339674 744.973877,294.749512 C745.668867,296.159349 746.880118,296.864258 748.607666,296.864258 C750.275643,296.864258 751.462073,296.154385 752.166992,294.734619 C752.871911,293.314853 753.224365,291.373873 753.224365,288.911621 L753.224365,284.92041 C753.224365,282.497872 752.871911,280.56682 752.166992,279.127197 C751.462073,277.687574 750.265715,276.967773 748.577881,276.967773 C746.890047,276.967773 745.693688,277.692538 744.98877,279.14209 C744.283851,280.591641 743.931396,282.517729 743.931396,284.92041 L743.931396,288.911621 Z M789.681396,289.060547 L789.860107,289.030762 L792.868408,270.772461 L800.701904,270.772461 L794.0896,303 L787.030518,303 L782.532959,285.635254 L782.354248,285.635254 L777.856689,303 L770.797607,303 L764.125732,270.772461 L772.018799,270.772461 L775.0271,289.120117 L775.205811,289.120117 L779.703369,270.772461 L785.183838,270.772461 L789.681396,289.060547 Z" id="For-a-secure,-git-ce" fill="#FFFFFF"></path>
            <path d="M136.54,234.62 L656.2,234.62" id="Line-2" stroke="#FFFFFF" stroke-width="2.16" stroke-linecap="square"></path>
        </g>
    </g>
</svg>