<?xml version="1.0" encoding="UTF-8"?>
<svg width="650px" height="327px" viewBox="0 0 650 327" version="1.1" xmlns="http://www.w3.org/2000/svg" xmlns:xlink="http://www.w3.org/1999/xlink">
    <!-- Generator: Sketch 48.2 (47327) - http://www.bohemiancoding.com/sketch -->
    <title>designed to scale copy 4</title>
    <desc>Created with Sketch.</desc>
    <defs></defs>
    <g id="Carousel" stroke="none" stroke-width="1" fill="none" fill-rule="evenodd" transform="translate(-4207.000000, -2242.000000)">
        <g id="designed-to-scale-copy-4" transform="translate(4207.000000, 2242.000000)">
            <path d="M36.449028,188.454131 C37.3036903,189.157971 38.3971388,190.100599 39.7294065,191.282044 C41.0616742,192.463488 42.5824475,193.632347 44.291772,194.788655 C46.8557588,196.49798 49.3945704,197.830227 51.908283,198.785438 C54.4219956,199.740649 57.0613542,200.218247 59.826438,200.218247 C62.3904248,200.218247 64.5396168,199.929174 66.2740785,199.351021 C68.0085402,198.772867 69.378493,198.006196 70.383978,197.050985 C71.389463,196.095774 72.1058604,194.989757 72.5331915,193.732901 C72.9605226,192.476045 73.174185,191.143797 73.174185,189.736118 C73.174185,188.177616 72.5834714,186.782527 71.4020265,185.550808 C70.2205816,184.319088 68.7752185,183.22564 67.065894,182.270429 C65.3565695,181.315218 63.5718603,180.498274 61.711713,179.819572 C59.8515657,179.140869 58.2428138,178.575292 56.885409,178.122824 C50.8524988,176.011305 45.5737816,173.73643 41.049099,171.298129 C36.5244164,168.859827 32.7539041,166.145058 29.737449,163.153741 C26.7209939,160.162423 24.4586865,156.869508 22.950459,153.2749 C21.4422315,149.680291 20.688129,145.670979 20.688129,141.246845 C20.688129,136.57134 21.6307571,132.323229 23.5160415,128.502386 C25.4013259,124.681543 28.090958,121.413766 31.5850185,118.698956 C35.079079,115.984146 39.2894844,113.885228 44.216361,112.402138 C49.1432376,110.919047 54.6481856,110.177513 60.73137,110.177513 C65.3063269,110.177513 69.6926895,110.692816 73.8905895,111.723439 C78.0884895,112.754061 82.2234846,114.400518 86.295699,116.662859 C88.0050235,117.668344 89.6263438,118.711519 91.1597085,119.792416 C92.6930732,120.873312 94.0378892,121.916487 95.194197,122.921972 C96.3505048,123.927457 97.2679961,124.882653 97.9466985,125.78759 C98.6254009,126.692527 98.964747,127.471766 98.964747,128.125331 C98.964747,128.778896 98.8013581,129.382178 98.4745755,129.935195 C98.1477929,130.488212 97.6576263,131.11663 97.004061,131.82047 L85.466178,144.112463 C84.6115157,144.967125 83.7568663,145.39445 82.902204,145.39445 C82.1983645,145.39445 81.5573774,145.193356 80.9792235,144.791162 C80.4010696,144.388968 79.7600825,143.886233 79.056243,143.282942 L78.377544,142.679654 C77.372059,141.824992 76.2534737,140.945206 75.0217545,140.040269 C73.7900353,139.135332 72.470356,138.318388 71.062677,137.589412 C69.654998,136.860435 68.1719298,136.257153 66.613428,135.779548 C65.0549262,135.301942 63.471311,135.063143 61.862535,135.063143 C60.2034847,135.063143 58.6450063,135.201395 57.187053,135.477904 C55.7290997,135.754412 54.4471255,136.194305 53.341092,136.797596 C52.2350585,137.400887 51.3552723,138.192695 50.701707,139.173043 C50.0481417,140.15339 49.721364,141.347386 49.721364,142.755065 C49.721364,144.162744 50.0732785,145.381876 50.777118,146.412499 C51.4809575,147.443121 52.536701,148.398317 53.94438,149.278117 C55.352059,150.157916 57.0990631,150.987429 59.1854445,151.76668 C61.2718259,152.54593 63.6975222,153.388011 66.462606,154.292948 C71.7916766,156.052547 76.705911,157.900098 81.2054565,159.835657 C85.705002,161.771215 89.5886297,164.058659 92.856456,166.698058 C96.1242823,169.337456 98.6756623,172.492118 100.510673,176.162138 C102.345683,179.832158 103.263174,184.281363 103.263174,189.509885 C103.263174,195.040053 102.13202,200.054834 99.869679,204.55438 C97.6073377,209.053925 94.5029492,212.887279 90.5564205,216.054557 C86.6098918,219.221835 81.9721616,221.672668 76.643091,223.40713 C71.3140204,225.141591 65.5828417,226.008809 59.449383,226.008809 C53.6678441,226.008809 47.9869389,224.978202 42.406497,222.916958 C36.8260551,220.855714 31.6227481,218.090671 26.79642,214.621748 C24.7854499,213.163795 23.0887194,211.731 21.7061775,210.323321 C20.3236356,208.915642 19.230187,207.784488 18.425799,206.929826 L18.199566,206.703593 C18.1492917,206.603044 18.0990183,206.540203 18.048744,206.515066 C17.9984697,206.489928 17.9481963,206.452223 17.897922,206.401949 C17.8476477,206.3014 17.7973743,206.238559 17.7471,206.213422 C17.6968257,206.188284 17.6465523,206.150579 17.596278,206.100305 C16.4399702,204.843449 15.861825,203.837979 15.861825,203.083865 C15.861825,202.229203 16.4399702,201.274006 17.596278,200.218247 L30.642381,187.775432 C31.6981403,187.021318 32.5527897,186.644267 33.206355,186.644267 C33.6588233,186.644267 34.1364215,186.795087 34.639164,187.096733 C35.1419065,187.398379 35.7451885,187.85084 36.449028,188.454131 Z M236.559985,120.735053 C237.414647,121.237796 238.043066,121.891351 238.44526,122.695739 C238.847454,123.500127 238.772044,124.455323 238.219027,125.561357 L225.474568,143.659997 C224.921551,144.514659 224.330838,145.004826 223.70241,145.130512 C223.073981,145.256197 222.307311,145.042535 221.402374,144.489518 C218.938936,142.629371 216.224167,141.196576 213.257986,140.191091 C210.291805,139.185606 207.149712,138.682871 203.831611,138.682871 C199.709123,138.682871 195.913473,139.46211 192.44455,141.020612 C188.975627,142.579114 185.984354,144.715737 183.470641,147.430547 C180.956929,150.145357 178.996262,153.312587 177.588583,156.932333 C176.180904,160.552079 175.477075,164.423138 175.477075,168.545627 C175.477075,172.668116 176.180904,176.526607 177.588583,180.121216 C178.996262,183.715824 180.956929,186.857918 183.470641,189.547591 C185.984354,192.237263 188.975627,194.361318 192.44455,195.91982 C195.913473,197.478322 199.709123,198.257561 203.831611,198.257561 C207.149712,198.257561 210.316942,197.742258 213.333397,196.711636 C216.349852,195.681013 219.089758,194.23565 221.553196,192.375503 C222.458133,191.822486 223.212235,191.596255 223.815526,191.696804 C224.418817,191.797353 225.022099,192.249814 225.62539,193.054202 L238.520671,211.605308 C239.073688,212.711342 239.149098,213.641401 238.746904,214.395515 C238.34471,215.149629 237.716291,215.778047 236.861629,216.28079 C232.135849,219.448068 227.045658,221.898901 221.590902,223.633363 C216.136145,225.367824 210.392398,226.235042 204.359488,226.235042 C199.030417,226.235042 193.915089,225.55635 189.01335,224.198945 C184.11161,222.84154 179.524153,220.906011 175.250842,218.392298 C170.977531,215.878585 167.093903,212.874744 163.599843,209.380684 C160.105782,205.886623 157.101941,202.015564 154.588228,197.76739 C152.074516,193.519215 150.138986,188.944327 148.781581,184.042588 C147.424176,179.140848 146.745484,174.02552 146.745484,168.696449 C146.745484,163.367378 147.424176,158.25205 148.781581,153.350311 C150.138986,148.448571 152.074516,143.848546 154.588228,139.550098 C157.101941,135.251649 160.105782,131.342885 163.599843,127.823687 C167.093903,124.304489 170.977531,121.300648 175.250842,118.812072 C179.524153,116.323497 184.11161,114.387967 189.01335,113.005426 C193.915089,111.622884 199.030417,110.931623 204.359488,110.931623 C210.392398,110.931623 216.085872,111.773704 221.44008,113.457892 C226.794287,115.142079 231.834205,117.567775 236.559985,120.735053 Z M319.256015,115.531694 C319.306289,115.230048 319.469678,114.903271 319.746187,114.551351 C320.022695,114.199431 320.362041,113.872654 320.764235,113.571008 C321.166429,113.269362 321.593754,113.030563 322.046222,112.854603 C322.498691,112.678644 322.926015,112.590665 323.328209,112.590665 L342.633425,112.590665 C343.488088,112.590665 344.217053,112.854601 344.820344,113.382481 C345.423635,113.91036 345.876097,114.37539 346.177742,114.777584 L348.063017,119.076011 L387.653792,221.182505 C388.055986,222.18799 387.980576,223.004934 387.427559,223.633363 C386.874542,224.261791 385.919346,224.576 384.561941,224.576 L362.918984,224.576 C361.762676,224.576 360.870322,224.362338 360.241894,223.935007 C359.613466,223.507675 359.123299,222.791278 358.771379,221.785793 C357.765894,219.221806 356.785561,216.670426 355.83035,214.131577 C354.875139,211.592727 353.919943,209.041347 352.964732,206.47736 L312.921491,206.47736 C311.96628,209.041347 310.998516,211.592727 310.018168,214.131577 C309.03782,216.670426 308.070055,219.221806 307.114844,221.785793 C306.461279,223.64594 305.179305,224.576 303.268883,224.576 L281.022638,224.576 C280.067427,224.576 279.27562,224.324633 278.647192,223.82189 C278.018764,223.319147 277.905648,222.565045 278.307842,221.55956 L319.256015,115.531694 Z M332.980817,147.807602 C332.025606,150.371589 331.057842,153.136631 330.077494,156.102812 C329.097146,159.068993 328.129381,162.060266 327.17417,165.076721 C326.218959,168.093176 325.251195,171.071881 324.270847,174.012925 C323.290499,176.953968 322.322734,179.706442 321.367523,182.270429 L344.5187,182.270429 L332.980817,147.807602 Z M429.854115,115.833338 C429.854115,114.928401 430.155756,114.149162 430.759047,113.495597 C431.362338,112.842032 432.191851,112.515254 433.24761,112.515254 L455.569266,112.515254 C456.423929,112.515254 457.203168,112.816895 457.907007,113.420186 C458.610847,114.023477 458.987898,114.827853 459.038172,115.833338 L459.038172,197.880506 L500.514222,197.880506 C501.419159,197.880506 502.198398,198.182147 502.851963,198.785438 C503.505529,199.388729 503.832306,200.218242 503.832306,201.274001 L503.832306,221.107094 C503.832306,221.961756 503.543234,222.740995 502.96508,223.444835 C502.386926,224.148675 501.569982,224.525726 500.514222,224.576 L433.172199,224.576 C430.960132,224.576 429.854115,223.469983 429.854115,221.257916 L429.854115,115.833338 Z M551.235988,116.059571 C551.235988,115.003812 551.525061,114.161731 552.103215,113.533303 C552.681369,112.904874 553.498313,112.590665 554.554072,112.590665 L629.437195,112.590665 C630.543229,112.590665 631.397878,112.917443 632.001169,113.571008 C632.60446,114.224573 632.906101,115.104359 632.906101,116.210393 L632.906101,134.912321 C632.906101,135.766983 632.60446,136.583928 632.001169,137.363179 C631.397878,138.142429 630.518092,138.532049 629.361784,138.532049 L580.495456,138.532049 L580.495456,157.158566 L618.200956,157.158566 C619.156167,157.158566 619.947975,157.384797 620.576403,157.837265 C621.204831,158.289733 621.51904,159.043836 621.51904,160.099595 L621.51904,176.388371 C621.51904,177.092211 621.242536,177.770903 620.689519,178.424468 C620.136503,179.078033 619.332127,179.404811 618.276367,179.404811 L580.495456,179.404811 L580.495456,198.634616 L631.171648,198.634616 C633.43399,198.634616 634.565143,199.790906 634.565143,202.103522 L634.565143,221.107094 C634.565143,221.609837 634.364049,222.062298 633.961855,222.464492 C633.760758,223.872171 632.730152,224.576 630.870004,224.576 L554.554072,224.576 C553.548587,224.576 552.744211,224.312064 552.14092,223.784185 C551.537629,223.256305 551.235988,222.439361 551.235988,221.333327 L551.235988,116.059571 Z" id="SCALE" fill="#FFFFFF"></path>
            <path d="M15.593634,63.712352 L15.593634,13.651922 C15.593634,7.40585 15.409926,4.374668 14.766948,0.149384 C18.441108,0.333092 20.737458,0.424946 28.36134,0.424946 L47.558826,0.424946 C58.856868,0.424946 67.950414,3.547982 74.104632,9.518492 C80.809974,16.13198 84.208572,25.77665 84.208572,37.993232 C84.208572,50.57723 80.534412,60.68117 73.553508,67.662074 C67.39929,73.724438 58.67316,76.847474 47.742534,76.847474 L28.36134,76.847474 C21.288582,76.847474 18.71667,76.939328 14.858802,77.123036 C15.409926,73.08146 15.593634,70.050278 15.593634,63.712352 Z M33.780726,60.773024 L46.089162,60.773024 C52.059672,60.773024 56.284956,59.211506 59.5917,55.904762 C63.357714,52.046894 65.378502,45.892676 65.378502,38.268794 C65.378502,30.461204 63.633276,24.766256 60.05097,21.18395 C56.83608,17.96906 52.427088,16.499396 45.8136,16.499396 L33.780726,16.499396 L33.780726,60.773024 Z M148.414518,53.975828 L107.080218,53.975828 C107.998758,61.416002 112.315896,65.365724 119.572362,65.365724 C123.246522,65.365724 126.461412,64.171622 128.849616,61.967126 C130.227426,60.68117 130.870404,59.670776 131.605236,57.282572 L147.587832,61.783418 C145.47519,66.559826 144.09738,68.672468 141.525468,71.24438 C136.28979,76.388204 128.94147,79.05197 119.847924,79.05197 C110.846232,79.05197 103.773474,76.480058 98.537796,71.24438 C93.11841,65.73314 90.179082,57.92555 90.179082,48.832004 C90.179082,30.644912 101.84454,18.612038 119.388654,18.612038 C133.717878,18.612038 143.729964,26.419628 146.944854,40.105874 C147.679686,43.045202 148.047102,46.90307 148.322664,52.138748 C148.322664,52.506164 148.322664,53.057288 148.414518,53.975828 Z M107.35578,41.299976 L130.962258,41.299976 C129.676302,35.42132 125.72658,32.298284 119.388654,32.298284 C112.86702,32.298284 108.917298,35.237612 107.35578,41.299976 Z M153.650196,60.130046 L171.837288,58.109258 C172.755828,62.885666 175.878864,64.998308 182.033082,64.998308 C187.544322,64.998308 190.667358,63.43679 190.667358,60.589316 C190.667358,59.211506 189.932526,58.017404 188.64657,57.282572 C187.360614,56.54774 186.166512,56.180324 181.114542,55.16993 C174.133638,53.79212 170.551332,52.87358 167.52015,51.863186 C163.111158,50.209814 160.079976,48.097172 158.33475,45.341552 C156.865086,42.861494 156.0384,39.738458 156.0384,36.615422 C156.0384,25.592942 165.315654,18.8876 180.655272,18.8876 C189.381402,18.8876 195.903036,20.816534 200.220174,24.766256 C203.251356,27.430022 204.72102,30.093788 206.190684,35.237612 L188.462862,37.166546 C188.003592,33.400532 185.707242,31.74716 180.747126,31.74716 C175.970718,31.74716 173.03139,33.308678 173.03139,35.696882 C173.03139,38.17694 174.960324,39.09548 184.05387,41.116268 C193.055562,43.045202 195.903036,43.871888 199.117926,45.52526 C205.088436,48.464588 207.93591,52.965434 207.93591,59.578922 C207.93591,64.447184 206.282538,68.856176 203.251356,71.795504 C198.842364,76.204496 191.310336,78.500846 181.481958,78.500846 C169.908354,78.500846 161.733348,75.37781 157.324356,69.315446 C155.487276,66.743534 154.568736,64.539038 153.650196,60.130046 Z M216.110916,0.424946 L234.757278,0.424946 L234.757278,14.203046 L216.110916,14.203046 L216.110916,0.424946 Z M215.835354,20.816534 L235.03284,20.816534 C234.481716,24.582548 234.298008,28.256708 234.298008,34.686488 L234.298008,62.97752 C234.298008,67.937636 234.57357,72.897752 235.03284,76.847474 L215.835354,76.847474 C216.386478,72.346628 216.570186,68.856176 216.570186,62.97752 L216.570186,34.686488 C216.570186,28.715978 216.386478,24.949964 215.835354,20.816534 Z M243.850824,84.012086 L257.0778,75.285956 C260.29269,79.419386 264.977244,81.532028 271.039608,81.532028 C276.091578,81.532028 280.0413,80.154218 282.245796,77.490452 C284.17473,75.285956 285.001416,72.530336 285.185124,67.662074 C280.50057,71.887358 275.540454,73.724438 268.467696,73.724438 C252.4851,73.724438 242.38116,63.253082 242.38116,46.535654 C242.38116,30.185642 252.760662,19.438724 268.467696,19.438724 C275.264892,19.438724 280.225008,21.000242 285.185124,24.766256 L285.185124,20.816534 L303.188508,20.816534 C302.637384,24.949964 302.453676,28.164854 302.453676,33.58424 L302.453676,65.824994 C302.453676,76.847474 299.33064,84.287648 292.90086,88.788494 C287.940744,92.278946 280.225008,94.20788 271.039608,94.20788 C258.547464,94.20788 250.280604,91.084844 243.850824,84.012086 Z M259.83342,46.627508 C259.83342,55.078076 264.609828,60.497462 271.866294,60.497462 C279.398322,60.497462 284.817708,54.71066 284.817708,46.535654 C284.817708,38.360648 279.398322,32.481992 271.958148,32.481992 C264.609828,32.481992 259.83342,38.085086 259.83342,46.627508 Z M331.93881,76.847474 L312.925032,76.847474 C313.476156,72.530336 313.659864,68.672468 313.659864,62.97752 L313.659864,34.686488 C313.659864,28.348562 313.476156,24.490694 312.925032,20.816534 L331.203978,20.816534 L331.203978,24.674402 C331.203978,25.225526 331.112124,26.603336 331.112124,27.246314 C336.898926,21.735074 342.50202,19.438724 350.034048,19.438724 C356.371974,19.438724 361.423944,21.18395 364.822542,24.582548 C368.496702,28.256708 370.05822,32.757554 370.05822,40.01402 L370.05822,63.069374 C370.05822,68.396906 370.333782,72.989606 370.793052,76.847474 L351.68742,76.847474 C352.238544,72.438482 352.422252,68.580614 352.422252,62.97752 L352.422252,44.14745 C352.422252,40.47329 352.054836,38.911772 350.952588,37.350254 C349.758486,35.696882 347.645844,34.778342 344.890224,34.778342 C339.7464,34.778342 335.1537,37.993232 331.203978,44.423012 L331.203978,62.97752 C331.203978,68.213198 331.387686,72.071066 331.93881,76.847474 Z M436.1931,53.975828 L394.8588,53.975828 C395.77734,61.416002 400.094478,65.365724 407.350944,65.365724 C411.025104,65.365724 414.239994,64.171622 416.628198,61.967126 C418.006008,60.68117 418.648986,59.670776 419.383818,57.282572 L435.366414,61.783418 C433.253772,66.559826 431.875962,68.672468 429.30405,71.24438 C424.068372,76.388204 416.720052,79.05197 407.626506,79.05197 C398.624814,79.05197 391.552056,76.480058 386.316378,71.24438 C380.896992,65.73314 377.957664,57.92555 377.957664,48.832004 C377.957664,30.644912 389.623122,18.612038 407.167236,18.612038 C421.49646,18.612038 431.508546,26.419628 434.723436,40.105874 C435.458268,43.045202 435.825684,46.90307 436.101246,52.138748 C436.101246,52.506164 436.101246,53.057288 436.1931,53.975828 Z M395.134362,41.299976 L418.74084,41.299976 C417.454884,35.42132 413.505162,32.298284 407.167236,32.298284 C400.645602,32.298284 396.69588,35.237612 395.134362,41.299976 Z M486.437238,76.847474 L486.437238,73.908146 C486.437238,73.357022 486.437238,72.714044 486.529092,71.887358 C480.374874,76.847474 475.69032,78.500846 467.974584,78.500846 C451.257156,78.500846 441.153216,67.294658 441.153216,48.74015 C441.153216,39.187334 443.908836,31.563452 449.05266,26.327774 C453.737214,21.64322 460.166994,19.163162 467.699022,19.163162 C475.139196,19.163162 480.466728,21.092096 486.529092,25.960358 C486.437238,24.582548 486.437238,23.755862 486.437238,22.469906 L486.437238,14.846024 C486.437238,8.416244 486.25353,4.466522 485.702406,0.424946 L504.532476,0.424946 C503.981352,4.282814 503.797644,8.691806 503.797644,14.846024 L503.797644,62.426396 C503.797644,68.580614 503.981352,72.346628 504.532476,76.847474 L486.437238,76.847474 Z M472.01616,33.216824 C464.024862,33.216824 458.972892,39.187334 458.972892,48.832004 C458.972892,54.067682 460.442556,58.292966 463.198176,60.956732 C465.402672,63.161228 468.709416,64.447184 472.108014,64.447184 C480.28302,64.447184 486.25353,57.649988 486.25353,48.556442 C486.25353,39.646604 480.374874,33.216824 472.01616,33.216824 Z M552.020994,20.816534 L552.020994,18.8876 C552.020994,14.2949 551.837286,10.62074 551.286162,6.303602 L570.024378,6.303602 C569.565108,10.069616 569.289546,14.478608 569.289546,18.8876 L569.289546,20.816534 L572.59629,20.816534 C576.637866,20.816534 578.750508,20.72468 581.597982,20.357264 L581.597982,35.605028 C578.842362,35.237612 576.454158,35.053904 573.147414,35.053904 L569.289546,35.053904 L569.289546,58.568528 C569.289546,61.14044 569.748816,62.426396 570.942918,63.253082 C571.953312,63.89606 573.422976,64.263476 575.168202,64.263476 C577.556406,64.263476 579.301632,63.804206 581.597982,62.610104 L582.975792,76.571912 C578.842362,77.857868 575.260056,78.408992 570.29994,78.408992 C564.053868,78.408992 559.73673,77.398598 556.797402,75.194102 C553.30695,72.530336 552.020994,69.4073 552.020994,63.161228 L552.020994,35.053904 L548.530542,35.053904 C545.591214,35.053904 543.20301,35.237612 540.539244,35.605028 L540.539244,20.26541 C543.20301,20.632826 545.49936,20.816534 548.71425,20.816534 L552.020994,20.816534 Z M616.594356,78.960116 C598.131702,78.960116 586.37439,67.202804 586.37439,48.74015 C586.37439,30.36935 598.131702,18.703892 616.68621,18.703892 C635.240718,18.703892 646.99803,30.36935 646.99803,48.556442 C646.99803,66.835388 634.873302,78.960116 616.594356,78.960116 Z M616.778064,32.481992 C608.694912,32.481992 603.918504,38.544356 603.918504,48.648296 C603.918504,58.84409 608.694912,64.998308 616.68621,64.998308 C624.677508,64.998308 629.270208,59.027798 629.270208,48.832004 C629.270208,38.544356 624.585654,32.481992 616.778064,32.481992 Z" id="Designed-to" fill="#64B5F6"></path>
            <path d="M18.8261719,318.745703 L9.37617187,318.745703 L7.45664063,326.35 L0.39375,326.35 L10.4835937,290.51875 L17.7679687,290.51875 L27.8332031,326.35 L20.7703125,326.35 L18.8261719,318.745703 Z M10.8035156,313.110156 L17.3988281,313.110156 L14.175,300.436328 L14.0273438,300.436328 L10.8035156,313.110156 Z M47.7667969,299.722656 L48.0375,303.11875 C48.7429723,301.871869 49.6289009,300.912113 50.6953125,300.239453 C51.7617241,299.566794 52.9839775,299.230469 54.3621094,299.230469 C55.7074286,299.230469 56.8804637,299.587301 57.88125,300.300977 C58.8820363,301.014652 59.6449193,302.101555 60.1699219,303.561719 C60.8589878,302.183587 61.7449165,301.117191 62.8277344,300.3625 C63.9105523,299.607809 65.1738209,299.230469 66.6175781,299.230469 C68.8160266,299.230469 70.5509702,300.136905 71.8224609,301.949805 C73.0939517,303.762704 73.7296875,306.531231 73.7296875,310.255469 L73.7296875,326.35 L66.7160156,326.35 L66.7160156,310.255469 C66.7160156,308.204677 66.4945335,306.789652 66.0515625,306.010352 C65.6085915,305.231051 64.9195359,304.841406 63.984375,304.841406 C63.3117154,304.841406 62.7128933,305.038279 62.1878906,305.432031 C61.662888,305.825783 61.2281267,306.367184 60.8835938,307.05625 C60.9000001,307.36797 60.9164062,307.675584 60.9328125,307.979102 C60.9492188,308.282619 60.9574219,308.598436 60.9574219,308.926562 L60.9574219,326.35 L53.9929688,326.35 L53.9929688,310.255469 C53.9929688,308.221084 53.7673851,306.81016 53.3162109,306.022656 C52.8650368,305.235152 52.1636766,304.841406 51.2121094,304.841406 C50.5722624,304.841406 50.0021509,305.001366 49.5017578,305.321289 C49.0013647,305.641213 48.5707049,306.088278 48.2097656,306.6625 L48.2097656,326.35 L41.2453125,326.35 L41.2453125,299.722656 L47.7667969,299.722656 Z M77.4703125,311.412109 C77.4703125,307.835529 78.417764,304.911144 80.3126953,302.638867 C82.2076267,300.36659 84.8613111,299.230469 88.2738281,299.230469 C91.6863452,299.230469 94.3441311,300.36659 96.2472656,302.638867 C98.1504001,304.911144 99.1019531,307.835529 99.1019531,311.412109 L99.1019531,314.709766 C99.1019531,318.319159 98.1504001,321.247645 96.2472656,323.495312 C94.3441311,325.74298 91.6945482,326.866797 88.2984375,326.866797 C84.8695141,326.866797 82.2076267,325.74298 80.3126953,323.495312 C78.417764,321.247645 77.4703125,318.319159 77.4703125,314.709766 L77.4703125,311.412109 Z M84.4347656,314.709766 C84.4347656,316.760557 84.7218721,318.368354 85.2960937,319.533203 C85.8703154,320.698053 86.8710866,321.280469 88.2984375,321.280469 C89.6765694,321.280469 90.656833,320.693951 91.2392578,319.520898 C91.8216826,318.347846 92.1128906,316.744151 92.1128906,314.709766 L92.1128906,311.412109 C92.1128906,309.410537 91.8216826,307.815045 91.2392578,306.625586 C90.656833,305.436127 89.6683663,304.841406 88.2738281,304.841406 C86.8792899,304.841406 85.8908232,305.440228 85.3083984,306.637891 C84.7259737,307.835553 84.4347656,309.426943 84.4347656,311.412109 L84.4347656,314.709766 Z M101.858203,313.183984 C101.858203,309.00037 102.629289,305.628919 104.171484,303.069531 C105.71368,300.510143 107.887486,299.230469 110.692969,299.230469 C111.726568,299.230469 112.661715,299.47656 113.498438,299.96875 C114.33516,300.46094 115.081637,301.166402 115.737891,302.085156 L115.737891,287.959375 L122.726953,287.959375 L122.726953,326.35 L116.648438,326.35 L116.180859,323.446094 C115.491793,324.561724 114.691997,325.410739 113.781445,325.993164 C112.870894,326.575589 111.833209,326.866797 110.668359,326.866797 C107.862877,326.866797 105.693172,325.665051 104.15918,323.261523 C102.625188,320.857996 101.858203,317.671114 101.858203,313.700781 L101.858203,313.183984 Z M108.847266,313.700781 C108.847266,316.079699 109.122068,317.933587 109.67168,319.2625 C110.221292,320.591413 111.152337,321.255859 112.464844,321.255859 C113.186722,321.255859 113.818357,321.087697 114.359766,320.751367 C114.901175,320.415037 115.360545,319.926956 115.737891,319.287109 L115.737891,307.179297 C115.360545,306.441012 114.901175,305.866799 114.359766,305.456641 C113.818357,305.046482 113.203128,304.841406 112.514062,304.841406 C111.217962,304.841406 110.282815,305.604289 109.708594,307.130078 C109.134372,308.655867 108.847266,310.673816 108.847266,313.183984 L108.847266,313.700781 Z M137.640234,326.866797 C134.293343,326.866797 131.635557,325.767589 129.666797,323.569141 C127.698037,321.370692 126.713672,318.598064 126.713672,315.251172 L126.713672,311.510547 C126.713672,307.91756 127.628311,304.972668 129.457617,302.675781 C131.286923,300.378895 133.817562,299.230469 137.049609,299.230469 C140.166812,299.230469 142.578507,300.272255 144.284766,302.355859 C145.991024,304.439464 146.844141,307.277716 146.844141,310.870703 L146.844141,315.152734 L133.678125,315.152734 L133.678125,315.251172 C133.678125,317.006649 134.075973,318.450385 134.87168,319.582422 C135.667387,320.714459 136.869133,321.280469 138.476953,321.280469 C139.78946,321.280469 140.855855,321.132814 141.676172,320.8375 C142.496488,320.542186 143.472651,320.050003 144.604687,319.360937 L146.376562,323.815234 C145.457808,324.701176 144.231453,325.431247 142.697461,326.005469 C141.163469,326.57969 139.477744,326.866797 137.640234,326.866797 Z M137.049609,304.841406 C135.933979,304.841406 135.113675,305.349995 134.588672,306.367187 C134.063669,307.38438 133.76836,308.754288 133.702734,310.476953 L139.978125,310.476953 L139.978125,309.492578 C139.978125,308.016008 139.74844,306.871684 139.289062,306.05957 C138.829685,305.247457 138.083208,304.841406 137.049609,304.841406 Z M162.938672,306.096484 L160.305469,306.022656 C159.567184,306.022656 158.956057,306.203123 158.47207,306.564062 C157.988084,306.925002 157.614845,307.43359 157.352344,308.089844 L157.352344,326.35 L150.363281,326.35 L150.363281,299.722656 L156.884766,299.722656 L157.155469,303.291016 L157.278516,303.340234 C157.70508,302.06054 158.299801,301.055668 159.062695,300.325586 C159.82559,299.595504 160.71562,299.230469 161.732812,299.230469 C162.044533,299.230469 162.376756,299.259179 162.729492,299.316602 C163.082228,299.374024 163.389842,299.44375 163.652344,299.525781 L162.938672,306.096484 Z M172.880859,299.722656 L173.176172,303.389453 C173.914457,302.076947 174.820893,301.055668 175.895508,300.325586 C176.970123,299.595504 178.155462,299.230469 179.451563,299.230469 C181.666417,299.230469 183.409564,300.083585 184.681055,301.789844 C185.952545,303.496102 186.588281,306.178497 186.588281,309.837109 L186.588281,326.35 L179.574609,326.35 L179.574609,309.837109 C179.574609,307.9996 179.316214,306.707621 178.799414,305.961133 C178.282615,305.214645 177.482818,304.841406 176.4,304.841406 C175.776559,304.841406 175.202346,305.005467 174.677344,305.333594 C174.152341,305.66172 173.709377,306.112888 173.348438,306.687109 L173.348438,326.35 L166.359375,326.35 L166.359375,299.722656 L172.880859,299.722656 Z M201.20625,316.801562 C201.20625,314.865615 201.677925,313.196296 202.621289,311.793555 C203.564653,310.390813 205.004287,308.92657 206.940234,307.400781 C205.923042,305.858586 205.168362,304.459967 204.676172,303.204883 C204.183982,301.949798 203.937891,300.666022 203.937891,299.353516 C203.937891,296.548033 204.74589,294.288095 206.361914,292.573633 C207.977938,290.859171 210.131237,290.001953 212.821875,290.001953 C215.151574,290.001953 217.058782,290.809953 218.543555,292.425977 C220.028328,294.042 220.770703,295.998426 220.770703,298.295312 C220.770703,299.886727 220.413871,301.342767 219.700195,302.663477 C218.98652,303.984186 218.022662,305.128511 216.808594,306.096484 L214.815234,307.696094 L220.475391,315.177344 L220.623047,315.152734 C221.066018,314.299605 221.414647,313.335748 221.668945,312.261133 C221.923243,311.186518 222.050391,310.050397 222.050391,308.852734 L227.169141,308.852734 C227.169141,311.116808 226.927151,313.188077 226.443164,315.066602 C225.959177,316.945127 225.200396,318.614446 224.166797,320.074609 L228.941016,326.35 L221.016797,326.35 L219.441797,324.282812 C218.211322,325.152348 216.960358,325.800388 215.688867,326.226953 C214.417376,326.653518 213.05157,326.866797 211.591406,326.866797 C208.424984,326.866797 205.902548,325.939853 204.024023,324.085937 C202.145498,322.232022 201.20625,319.803921 201.20625,316.801562 Z M212.009766,321.280469 C212.731644,321.280469 213.453512,321.182032 214.175391,320.985156 C214.897269,320.78828 215.594528,320.484768 216.267188,320.074609 L209.893359,311.608984 L209.721094,311.756641 C209.146872,312.544145 208.757228,313.311129 208.552148,314.057617 C208.347069,314.804105 208.244531,315.57109 208.244531,316.358594 C208.244531,317.785945 208.601364,318.963081 209.315039,319.890039 C210.028715,320.816997 210.926948,321.280469 212.009766,321.280469 Z M210.164063,299.279687 C210.164063,299.952347 210.307616,300.641403 210.594727,301.346875 C210.881837,302.052347 211.312497,302.823433 211.886719,303.660156 L213.338672,302.577344 C214.158988,301.986716 214.708592,301.383792 214.9875,300.768555 C215.266408,300.153317 215.405859,299.476566 215.405859,298.738281 C215.405859,297.917965 215.16387,297.191995 214.679883,296.560352 C214.195896,295.928708 213.568363,295.612891 212.797266,295.612891 C211.944136,295.612891 211.291994,295.96152 210.84082,296.658789 C210.389646,297.356058 210.164063,298.229682 210.164063,299.279687 Z M255.691406,306.096484 L253.058203,306.022656 C252.319918,306.022656 251.708791,306.203123 251.224805,306.564062 C250.740818,306.925002 250.367579,307.43359 250.105078,308.089844 L250.105078,326.35 L243.116016,326.35 L243.116016,299.722656 L249.6375,299.722656 L249.908203,303.291016 L250.03125,303.340234 C250.457815,302.06054 251.052535,301.055668 251.81543,300.325586 C252.578324,299.595504 253.468354,299.230469 254.485547,299.230469 C254.797267,299.230469 255.12949,299.259179 255.482227,299.316602 C255.834963,299.374024 256.142577,299.44375 256.405078,299.525781 L255.691406,306.096484 Z M269.128125,326.866797 C265.781233,326.866797 263.123447,325.767589 261.154687,323.569141 C259.185928,321.370692 258.201562,318.598064 258.201562,315.251172 L258.201562,311.510547 C258.201562,307.91756 259.116202,304.972668 260.945508,302.675781 C262.774814,300.378895 265.305453,299.230469 268.5375,299.230469 C271.654703,299.230469 274.066398,300.272255 275.772656,302.355859 C277.478915,304.439464 278.332031,307.277716 278.332031,310.870703 L278.332031,315.152734 L265.166016,315.152734 L265.166016,315.251172 C265.166016,317.006649 265.563863,318.450385 266.35957,319.582422 C267.155277,320.714459 268.357023,321.280469 269.964844,321.280469 C271.27735,321.280469 272.343746,321.132814 273.164062,320.8375 C273.984379,320.542186 274.960541,320.050003 276.092578,319.360937 L277.864453,323.815234 C276.945699,324.701176 275.719344,325.431247 274.185352,326.005469 C272.65136,326.57969 270.965634,326.866797 269.128125,326.866797 Z M268.5375,304.841406 C267.421869,304.841406 266.601565,305.349995 266.076562,306.367187 C265.55156,307.38438 265.25625,308.754288 265.190625,310.476953 L271.466016,310.476953 L271.466016,309.492578 C271.466016,308.016008 271.23633,306.871684 270.776953,306.05957 C270.317576,305.247457 269.571099,304.841406 268.5375,304.841406 Z M293.442187,319.385547 C293.442187,318.630856 293.146878,317.978714 292.55625,317.429102 C291.965622,316.879489 290.833602,316.202738 289.160156,315.398828 C286.485924,314.398042 284.48028,313.266022 283.143164,312.002734 C281.806048,310.739447 281.1375,309.098838 281.1375,307.080859 C281.1375,304.915224 281.994718,303.065437 283.70918,301.531445 C285.423641,299.997453 287.691783,299.230469 290.513672,299.230469 C293.466812,299.230469 295.821085,300.017961 297.576562,301.592969 C299.33204,303.167977 300.176953,305.177722 300.111328,307.622266 L300.0375,307.769922 L293.294531,307.769922 C293.294531,306.654291 293.064846,305.768363 292.605469,305.112109 C292.146091,304.455856 291.44063,304.127734 290.489062,304.127734 C289.734371,304.127734 289.094534,304.382029 288.569531,304.890625 C288.044529,305.399221 287.782031,306.01445 287.782031,306.736328 C287.782031,307.523832 288.044529,308.159568 288.569531,308.643555 C289.094534,309.127541 290.234757,309.787886 291.990234,310.624609 C294.779311,311.576177 296.846478,312.704095 298.191797,314.008398 C299.537116,315.312702 300.209766,317.023036 300.209766,319.139453 C300.209766,321.403527 299.307431,323.257415 297.502734,324.701172 C295.698038,326.144929 293.327358,326.866797 290.390625,326.866797 C287.322641,326.866797 284.89454,325.972665 283.10625,324.184375 C281.31796,322.396085 280.464843,320.378136 280.546875,318.130469 L280.596094,317.982812 L286.994531,317.982812 C287.027344,319.393757 287.355466,320.410934 287.978906,321.034375 C288.602347,321.657816 289.463666,321.969531 290.562891,321.969531 C291.498052,321.969531 292.211716,321.739846 292.703906,321.280469 C293.196096,320.821091 293.442187,320.189457 293.442187,319.385547 Z M311.013281,326.35 L304.024219,326.35 L304.024219,299.722656 L311.013281,299.722656 L311.013281,326.35 Z M311.013281,293.299609 L304.024219,293.299609 L304.024219,287.959375 L311.013281,287.959375 L311.013281,293.299609 Z M323.194922,326.35 L316.205859,326.35 L316.205859,287.959375 L323.194922,287.959375 L323.194922,326.35 Z M335.376562,326.35 L328.3875,326.35 L328.3875,299.722656 L335.376562,299.722656 L335.376562,326.35 Z M335.376562,293.299609 L328.3875,293.299609 L328.3875,287.959375 L335.376562,287.959375 L335.376562,293.299609 Z M350.609766,326.866797 C347.262874,326.866797 344.605088,325.767589 342.636328,323.569141 C340.667568,321.370692 339.683203,318.598064 339.683203,315.251172 L339.683203,311.510547 C339.683203,307.91756 340.597842,304.972668 342.427148,302.675781 C344.256454,300.378895 346.787093,299.230469 350.019141,299.230469 C353.136344,299.230469 355.548038,300.272255 357.254297,302.355859 C358.960555,304.439464 359.813672,307.277716 359.813672,310.870703 L359.813672,315.152734 L346.647656,315.152734 L346.647656,315.251172 C346.647656,317.006649 347.045504,318.450385 347.841211,319.582422 C348.636918,320.714459 349.838664,321.280469 351.446484,321.280469 C352.758991,321.280469 353.825387,321.132814 354.645703,320.8375 C355.46602,320.542186 356.442182,320.050003 357.574219,319.360937 L359.346094,323.815234 C358.427339,324.701176 357.200984,325.431247 355.666992,326.005469 C354.133,326.57969 352.447275,326.866797 350.609766,326.866797 Z M350.019141,304.841406 C348.90351,304.841406 348.083206,305.349995 347.558203,306.367187 C347.0332,307.38438 346.737891,308.754288 346.672266,310.476953 L352.947656,310.476953 L352.947656,309.492578 C352.947656,308.016008 352.717971,306.871684 352.258594,306.05957 C351.799216,305.247457 351.05274,304.841406 350.019141,304.841406 Z M369.73125,299.722656 L370.026562,303.389453 C370.764847,302.076947 371.671284,301.055668 372.745898,300.325586 C373.820513,299.595504 375.005853,299.230469 376.301953,299.230469 C378.516808,299.230469 380.259955,300.083585 381.531445,301.789844 C382.802936,303.496102 383.438672,306.178497 383.438672,309.837109 L383.438672,326.35 L376.425,326.35 L376.425,309.837109 C376.425,307.9996 376.166604,306.707621 375.649805,305.961133 C375.133005,305.214645 374.333209,304.841406 373.250391,304.841406 C372.62695,304.841406 372.052737,305.005467 371.527734,305.333594 C371.002732,305.66172 370.559767,306.112888 370.198828,306.687109 L370.198828,326.35 L363.209766,326.35 L363.209766,299.722656 L369.73125,299.722656 Z M396.137109,293.102734 L396.137109,299.722656 L399.828516,299.722656 L399.828516,304.792187 L396.137109,304.792187 L396.137109,318.155078 C396.137109,319.237896 396.292967,320.013084 396.604687,320.480664 C396.916408,320.948245 397.342966,321.182031 397.884375,321.182031 C398.31094,321.182031 398.671874,321.161524 398.967187,321.120508 C399.262501,321.079492 399.590623,321.009766 399.951562,320.911328 L400.492969,326.226953 C399.754684,326.456642 399.049222,326.620703 398.376562,326.719141 C397.703903,326.817579 396.94102,326.866797 396.087891,326.866797 C393.840223,326.866797 392.121686,326.17364 390.932227,324.787305 C389.742767,323.40097 389.148047,321.198453 389.148047,318.179687 L389.148047,304.792187 L385.998047,304.792187 L385.998047,299.722656 L389.148047,299.722656 L389.148047,293.102734 L396.137109,293.102734 Z M427.784766,326.35 C427.58789,325.907029 427.411524,325.423049 427.255664,324.898047 C427.099804,324.373044 426.98086,323.839846 426.898828,323.298437 C426.242575,324.381255 425.442778,325.246676 424.499414,325.894727 C423.55605,326.542777 422.460944,326.866797 421.214062,326.866797 C419.015614,326.866797 417.256061,326.144929 415.935352,324.701172 C414.614642,323.257415 413.954297,321.3297 413.954297,318.917969 C413.954297,316.309362 414.795109,314.28321 416.476758,312.839453 C418.158407,311.395696 420.656233,310.673828 423.970312,310.673828 L426.603516,310.673828 L426.603516,308.508203 C426.603516,307.212103 426.369729,306.215433 425.902148,305.518164 C425.434568,304.820895 424.733208,304.472266 423.798047,304.472266 C423.010543,304.472266 422.419924,304.751169 422.026172,305.308984 C421.63242,305.8668 421.435547,306.678901 421.435547,307.745312 L414.667969,307.720703 L414.594141,307.573047 C414.512109,305.259754 415.369327,303.291024 417.16582,301.666797 C418.962314,300.04257 421.328892,299.230469 424.265625,299.230469 C427.038295,299.230469 429.29003,300.038468 431.020898,301.654492 C432.751766,303.270516 433.617187,305.571469 433.617187,308.557422 L433.617187,319.336328 C433.617187,320.648835 433.707421,321.871088 433.887891,323.003125 C434.06836,324.135162 434.347264,325.250776 434.724609,326.35 L427.784766,326.35 Z M423.232031,321.600391 C423.937504,321.600391 424.589645,321.411721 425.188477,321.034375 C425.787308,320.657029 426.258983,320.17305 426.603516,319.582422 L426.603516,314.685156 L423.970312,314.685156 C422.903901,314.685156 422.132815,315.054293 421.657031,315.792578 C421.181248,316.530863 420.943359,317.46601 420.943359,318.598047 C420.943359,319.483989 421.148435,320.205857 421.558594,320.763672 C421.968752,321.321487 422.526559,321.600391 423.232031,321.600391 Z M450.622266,306.096484 L447.989062,306.022656 C447.250778,306.022656 446.639651,306.203123 446.155664,306.564062 C445.671677,306.925002 445.298439,307.43359 445.035937,308.089844 L445.035937,326.35 L438.046875,326.35 L438.046875,299.722656 L444.568359,299.722656 L444.839062,303.291016 L444.962109,303.340234 C445.388674,302.06054 445.983395,301.055668 446.746289,300.325586 C447.509184,299.595504 448.399214,299.230469 449.416406,299.230469 C449.728127,299.230469 450.06035,299.259179 450.413086,299.316602 C450.765822,299.374024 451.073436,299.44375 451.335937,299.525781 L450.622266,306.096484 Z M463.419141,321.280469 C464.370708,321.280469 465.088474,320.927738 465.572461,320.222266 C466.056448,319.516793 466.298437,318.499616 466.298437,317.170703 L472.647656,317.170703 L472.721484,317.318359 C472.770703,320.107436 471.913485,322.396085 470.149805,324.184375 C468.386124,325.972665 466.142592,326.866797 463.419141,326.866797 C459.973811,326.866797 457.32833,325.74298 455.482617,323.495312 C453.636905,321.247645 452.714063,318.343768 452.714062,314.783594 L452.714062,311.362891 C452.714063,307.819123 453.632803,304.911144 455.470312,302.638867 C457.307822,300.36659 459.940998,299.230469 463.369922,299.230469 C466.257436,299.230469 468.550187,300.157413 470.248242,302.011328 C471.946298,303.865244 472.770703,306.367172 472.721484,309.517187 L472.672266,309.640234 L466.298437,309.640234 C466.298437,308.196477 466.056448,307.035747 465.572461,306.158008 C465.088474,305.280269 464.354302,304.841406 463.369922,304.841406 C461.975384,304.841406 461.015628,305.432025 460.490625,306.613281 C459.965622,307.794537 459.703125,309.377724 459.703125,311.362891 L459.703125,314.783594 C459.703125,316.817979 459.965622,318.409369 460.490625,319.557812 C461.015628,320.706256 461.99179,321.280469 463.419141,321.280469 Z M482.885156,302.897266 C483.574222,301.732416 484.40273,300.830081 485.370703,300.190234 C486.338677,299.550387 487.405072,299.230469 488.569922,299.230469 C490.932434,299.230469 492.786321,300.169717 494.131641,302.048242 C495.47696,303.926767 496.149609,306.826543 496.149609,310.747656 L496.149609,326.35 L489.135937,326.35 L489.135937,310.698437 C489.135937,308.499989 488.877542,306.974223 488.360742,306.121094 C487.843943,305.267964 487.035943,304.841406 485.936719,304.841406 C485.280465,304.841406 484.698049,304.98496 484.189453,305.27207 C483.680857,305.559181 483.246096,305.957029 482.885156,306.465625 L482.885156,326.35 L475.896094,326.35 L475.896094,287.959375 L482.885156,287.959375 L482.885156,302.897266 Z M507.888281,326.35 L500.899219,326.35 L500.899219,299.722656 L507.888281,299.722656 L507.888281,326.35 Z M507.888281,293.299609 L500.899219,293.299609 L500.899219,287.959375 L507.888281,287.959375 L507.888281,293.299609 Z M521.078906,293.102734 L521.078906,299.722656 L524.770312,299.722656 L524.770312,304.792187 L521.078906,304.792187 L521.078906,318.155078 C521.078906,319.237896 521.234764,320.013084 521.546484,320.480664 C521.858205,320.948245 522.284763,321.182031 522.826172,321.182031 C523.252737,321.182031 523.61367,321.161524 523.908984,321.120508 C524.204298,321.079492 524.53242,321.009766 524.893359,320.911328 L525.434766,326.226953 C524.696481,326.456642 523.991019,326.620703 523.318359,326.719141 C522.6457,326.817579 521.882817,326.866797 521.029687,326.866797 C518.78202,326.866797 517.063483,326.17364 515.874023,324.787305 C514.684564,323.40097 514.089844,321.198453 514.089844,318.179687 L514.089844,304.792187 L510.939844,304.792187 L510.939844,299.722656 L514.089844,299.722656 L514.089844,293.102734 L521.078906,293.102734 Z M539.068359,326.866797 C535.721468,326.866797 533.063682,325.767589 531.094922,323.569141 C529.126162,321.370692 528.141797,318.598064 528.141797,315.251172 L528.141797,311.510547 C528.141797,307.91756 529.056436,304.972668 530.885742,302.675781 C532.715048,300.378895 535.245687,299.230469 538.477734,299.230469 C541.594937,299.230469 544.006632,300.272255 545.712891,302.355859 C547.419149,304.439464 548.272266,307.277716 548.272266,310.870703 L548.272266,315.152734 L535.10625,315.152734 L535.10625,315.251172 C535.10625,317.006649 535.504098,318.450385 536.299805,319.582422 C537.095512,320.714459 538.297258,321.280469 539.905078,321.280469 C541.217585,321.280469 542.28398,321.132814 543.104297,320.8375 C543.924613,320.542186 544.900776,320.050003 546.032812,319.360937 L547.804687,323.815234 C546.885933,324.701176 545.659578,325.431247 544.125586,326.005469 C542.591594,326.57969 540.905869,326.866797 539.068359,326.866797 Z M538.477734,304.841406 C537.362104,304.841406 536.541799,305.349995 536.016797,306.367187 C535.491794,307.38438 535.196485,308.754288 535.130859,310.476953 L541.40625,310.476953 L541.40625,309.492578 C541.40625,308.016008 541.176565,306.871684 540.717187,306.05957 C540.25781,305.247457 539.511333,304.841406 538.477734,304.841406 Z M561.512109,321.280469 C562.463677,321.280469 563.181443,320.927738 563.66543,320.222266 C564.149416,319.516793 564.391406,318.499616 564.391406,317.170703 L570.740625,317.170703 L570.814453,317.318359 C570.863672,320.107436 570.006454,322.396085 568.242773,324.184375 C566.479093,325.972665 564.23556,326.866797 561.512109,326.866797 C558.06678,326.866797 555.421298,325.74298 553.575586,323.495312 C551.729874,321.247645 550.807031,318.343768 550.807031,314.783594 L550.807031,311.362891 C550.807031,307.819123 551.725772,304.911144 553.563281,302.638867 C555.40079,300.36659 558.033967,299.230469 561.462891,299.230469 C564.350405,299.230469 566.643156,300.157413 568.341211,302.011328 C570.039266,303.865244 570.863672,306.367172 570.814453,309.517187 L570.765234,309.640234 L564.391406,309.640234 C564.391406,308.196477 564.149416,307.035747 563.66543,306.158008 C563.181443,305.280269 562.447271,304.841406 561.462891,304.841406 C560.068352,304.841406 559.108596,305.432025 558.583594,306.613281 C558.058591,307.794537 557.796094,309.377724 557.796094,311.362891 L557.796094,314.783594 C557.796094,316.817979 558.058591,318.409369 558.583594,319.557812 C559.108596,320.706256 560.084758,321.280469 561.512109,321.280469 Z M582.503906,293.102734 L582.503906,299.722656 L586.195312,299.722656 L586.195312,304.792187 L582.503906,304.792187 L582.503906,318.155078 C582.503906,319.237896 582.659764,320.013084 582.971484,320.480664 C583.283205,320.948245 583.709763,321.182031 584.251172,321.182031 C584.677737,321.182031 585.03867,321.161524 585.333984,321.120508 C585.629298,321.079492 585.95742,321.009766 586.318359,320.911328 L586.859766,326.226953 C586.121481,326.456642 585.416019,326.620703 584.743359,326.719141 C584.0707,326.817579 583.307817,326.866797 582.454687,326.866797 C580.20702,326.866797 578.488483,326.17364 577.299023,324.787305 C576.109564,323.40097 575.514844,321.198453 575.514844,318.179687 L575.514844,304.792187 L572.364844,304.792187 L572.364844,299.722656 L575.514844,299.722656 L575.514844,293.102734 L582.503906,293.102734 Z M603.643359,323.273828 C602.921481,324.438678 602.047857,325.328708 601.022461,325.943945 C599.997065,326.559183 598.836335,326.866797 597.540234,326.866797 C595.161316,326.866797 593.303327,325.968564 591.966211,324.17207 C590.629095,322.375577 589.960547,319.590644 589.960547,315.817187 L589.960547,299.722656 L596.949609,299.722656 L596.949609,315.866406 C596.949609,317.753134 597.179295,319.123043 597.638672,319.976172 C598.098049,320.829301 598.778902,321.255859 599.68125,321.255859 C600.452348,321.255859 601.129099,321.112306 601.711523,320.825195 C602.293948,320.538085 602.790232,320.115628 603.200391,319.557812 L603.200391,299.722656 L610.214062,299.722656 L610.214062,326.35 L604.061719,326.35 L603.643359,323.273828 Z M627.194531,306.096484 L624.561328,306.022656 C623.823043,306.022656 623.211916,306.203123 622.72793,306.564062 C622.243943,306.925002 621.870704,307.43359 621.608203,308.089844 L621.608203,326.35 L614.619141,326.35 L614.619141,299.722656 L621.140625,299.722656 L621.411328,303.291016 L621.534375,303.340234 C621.96094,302.06054 622.55566,301.055668 623.318555,300.325586 C624.081449,299.595504 624.971479,299.230469 625.988672,299.230469 C626.300392,299.230469 626.632615,299.259179 626.985352,299.316602 C627.338088,299.374024 627.645702,299.44375 627.908203,299.525781 L627.194531,306.096484 Z M640.63125,326.866797 C637.284358,326.866797 634.626572,325.767589 632.657812,323.569141 C630.689053,321.370692 629.704687,318.598064 629.704687,315.251172 L629.704687,311.510547 C629.704687,307.91756 630.619327,304.972668 632.448633,302.675781 C634.277939,300.378895 636.808578,299.230469 640.040625,299.230469 C643.157828,299.230469 645.569523,300.272255 647.275781,302.355859 C648.98204,304.439464 649.835156,307.277716 649.835156,310.870703 L649.835156,315.152734 L636.669141,315.152734 L636.669141,315.251172 C636.669141,317.006649 637.066988,318.450385 637.862695,319.582422 C638.658402,320.714459 639.860148,321.280469 641.467969,321.280469 C642.780475,321.280469 643.846871,321.132814 644.667187,320.8375 C645.487504,320.542186 646.463666,320.050003 647.595703,319.360937 L649.367578,323.815234 C648.448824,324.701176 647.222469,325.431247 645.688477,326.005469 C644.154485,326.57969 642.468759,326.866797 640.63125,326.866797 Z M640.040625,304.841406 C638.924994,304.841406 638.10469,305.349995 637.579687,306.367187 C637.054685,307.38438 636.759375,308.754288 636.69375,310.476953 L642.969141,310.476953 L642.969141,309.492578 C642.969141,308.016008 642.739455,306.871684 642.280078,306.05957 C641.820701,305.247457 641.074224,304.841406 640.040625,304.841406 Z" id="A-modern-&amp;-resilient" fill="#FFFFFF"></path>
            <path d="M172.767,265.601 L480.648,265.601" id="Line-2" stroke="#FFFFFF" stroke-width="2.268" stroke-linecap="square"></path>
        </g>
    </g>
</svg>